<?xml version="1.0" encoding="UTF-8"?> <svg xmlns="http://www.w3.org/2000/svg" width="332" height="42" viewBox="0 0 332 42" fill="none"><g clip-path="url(#clip0_3953_985)"><path d="M301.613 0H289.617C289.361 0 289.153 0.200656 289.153 0.448177V41.5518C289.153 41.7993 289.361 42 289.617 42H301.613C301.869 42 302.076 41.7993 302.076 41.5518V0.448177C302.076 0.200656 301.869 0 301.613 0Z" fill="#8FC475"></path><path d="M316.151 0H304.155C303.899 0 303.692 0.200656 303.692 0.448177V41.5518C303.692 41.7993 303.899 42 304.155 42H316.151C316.407 42 316.615 41.7993 316.615 41.5518V0.448177C316.615 0.200656 316.407 0 316.151 0Z" fill="#70B95E"></path><path d="M330.69 0H318.694C318.438 0 318.23 0.200656 318.23 0.448177V41.5518C318.23 41.7993 318.438 42 318.694 42H330.69C330.946 42 331.153 41.7993 331.153 41.5518V0.448177C331.153 0.200656 330.946 0 330.69 0Z" fill="#3BB54A"></path><path d="M13.6855 33.7711C11.8246 33.7711 10.2609 33.6677 8.99446 33.4609C7.728 33.2283 6.69415 32.8406 5.89292 32.2979C5.09169 31.7292 4.47139 30.9409 4.032 29.9329C3.61846 28.8991 3.33415 27.5809 3.17908 25.9785C3.024 24.376 2.94646 22.4246 2.94646 20.1243C2.94646 17.824 3.024 15.8856 3.17908 14.3089C3.33415 12.7065 3.61846 11.4012 4.032 10.3932C4.47139 9.3594 5.09169 8.55817 5.89292 7.98955C6.69415 7.42093 7.728 7.03324 8.99446 6.82647C10.2609 6.59386 11.8246 6.47755 13.6855 6.47755C14.4092 6.47755 15.1458 6.5034 15.8954 6.55509C16.6708 6.60678 17.4074 6.6714 18.1052 6.74894C18.8031 6.82647 19.4105 6.92986 19.9274 7.05909V9.73416C19.3329 9.65663 18.7126 9.59201 18.0665 9.54032C17.4462 9.46278 16.8258 9.41109 16.2055 9.38524C15.5852 9.3594 15.0295 9.34647 14.5385 9.34647C13.0394 9.34647 11.7858 9.41109 10.7778 9.54032C9.76985 9.66955 8.96862 9.92801 8.37415 10.3157C7.77969 10.6776 7.32739 11.2591 7.01723 12.0603C6.73292 12.8357 6.53908 13.8825 6.43569 15.2006C6.33231 16.4929 6.28062 18.1342 6.28062 20.1243C6.28062 22.1145 6.33231 23.7686 6.43569 25.0868C6.53908 26.3791 6.73292 27.4259 7.01723 28.2271C7.32739 29.0025 7.77969 29.584 8.37415 29.9717C8.96862 30.3336 9.76985 30.5791 10.7778 30.7083C11.7858 30.8376 13.0394 30.9022 14.5385 30.9022C15.4172 30.9022 16.3735 30.8634 17.4074 30.7859C18.4412 30.7083 19.3329 30.6179 20.0825 30.5145V33.2671C19.5397 33.3705 18.8935 33.448 18.144 33.4997C17.4203 33.5772 16.6708 33.6419 15.8954 33.6936C15.12 33.7452 14.3834 33.7711 13.6855 33.7711ZM26.1768 33.4609V6.7877H29.511V18.5348H43.4679V6.7877H46.802V33.4609H43.4679V21.4812H29.511V33.4609H26.1768ZM51.743 33.4609L61.823 6.7877H66.0101L76.0513 33.4609H72.6008L69.8482 26.1723H57.8685L55.1159 33.4609H51.743ZM58.8765 23.2646H68.8402L63.9553 10.1994H63.7615L58.8765 23.2646ZM81.0368 33.4609V6.7877H93.2879C94.9679 6.7877 96.2989 6.99447 97.2811 7.40801C98.2891 7.7957 99.0257 8.36432 99.4909 9.11386C99.982 9.83755 100.305 10.6905 100.46 11.6726C100.615 12.6548 100.693 13.7015 100.693 14.8129C100.693 15.7692 100.602 16.7643 100.421 17.7982C100.266 18.8062 99.8916 19.7237 99.2971 20.5508C98.7285 21.3779 97.8239 21.9852 96.5832 22.3729L101.08 33.4609H97.5137L93.094 22.2566L94.0245 22.7219C93.8436 22.7736 93.6239 22.8123 93.3654 22.8382C93.1069 22.864 92.758 22.8769 92.3186 22.8769H84.3709V33.4609H81.0368ZM84.3709 19.9692H91.8534C93.1457 19.9692 94.1537 19.8659 94.8774 19.6591C95.6269 19.4523 96.1697 19.1292 96.5057 18.6899C96.8676 18.2505 97.1002 17.7206 97.2036 17.1003C97.3069 16.4542 97.3586 15.6917 97.3586 14.8129C97.3586 13.9342 97.3069 13.1846 97.2036 12.5643C97.126 11.9182 96.9192 11.3883 96.5832 10.9748C96.2731 10.5354 95.7562 10.2123 95.0325 10.0056C94.3346 9.77293 93.3654 9.65663 92.1248 9.65663H84.3709V19.9692ZM117.816 33.7711C115.929 33.7711 114.327 33.6677 113.008 33.4609C111.69 33.2283 110.605 32.8277 109.752 32.2591C108.925 31.6905 108.266 30.9022 107.775 29.8942C107.309 28.8603 106.973 27.5551 106.767 25.9785C106.586 24.376 106.495 22.4246 106.495 20.1243C106.495 17.824 106.586 15.8856 106.767 14.3089C106.973 12.7065 107.322 11.4012 107.813 10.3932C108.304 9.3594 108.976 8.55817 109.829 7.98955C110.682 7.42093 111.755 7.03324 113.047 6.82647C114.365 6.59386 115.955 6.47755 117.816 6.47755C118.695 6.47755 119.638 6.51632 120.646 6.59386C121.654 6.6714 122.636 6.76186 123.592 6.86524C124.575 6.96863 125.453 7.09786 126.229 7.25293V9.96678C125.402 9.83755 124.562 9.73417 123.709 9.65663C122.856 9.55324 122.055 9.4757 121.305 9.42401C120.581 9.37232 119.961 9.34647 119.444 9.34647C117.842 9.34647 116.472 9.38524 115.335 9.46278C114.223 9.54032 113.306 9.74709 112.582 10.0831C111.858 10.4191 111.303 10.9748 110.915 11.7502C110.527 12.4997 110.243 13.5465 110.062 14.8905C109.907 16.2345 109.829 17.9791 109.829 20.1243C109.829 22.0111 109.881 23.6006 109.984 24.8929C110.088 26.1594 110.295 27.1932 110.605 27.9945C110.941 28.7957 111.393 29.416 111.962 29.8554C112.556 30.2948 113.331 30.592 114.288 30.7471C115.27 30.8763 116.472 30.9409 117.893 30.9409C118.436 30.9409 119.031 30.928 119.677 30.9022C120.323 30.8763 120.956 30.8376 121.576 30.7859C122.197 30.7342 122.714 30.6825 123.127 30.6308V21.9465H117.079V19.1163H126.345V32.9957C125.492 33.1508 124.549 33.2929 123.515 33.4222C122.507 33.5256 121.499 33.6031 120.491 33.6548C119.509 33.7323 118.617 33.7711 117.816 33.7711ZM133.625 33.4609V6.7877H150.955V9.65663H136.959V18.5348H149.133V21.4425H136.959V30.592H150.955V33.4609H133.625ZM156.985 33.4609V6.7877H169.391C171.149 6.7877 172.544 7.05909 173.578 7.60186C174.612 8.14463 175.349 8.92001 175.788 9.92801C176.228 10.9102 176.447 12.0991 176.447 13.4948C176.447 14.632 176.292 15.64 175.982 16.5188C175.672 17.3717 175.181 18.0696 174.509 18.6123C173.863 19.1551 172.997 19.5428 171.911 19.7754V19.9305C173.229 20.1631 174.237 20.5896 174.935 21.2099C175.633 21.8043 176.111 22.5539 176.37 23.4585C176.628 24.3631 176.757 25.3582 176.757 26.4437C176.757 27.3742 176.641 28.2659 176.408 29.1188C176.202 29.9717 175.827 30.7212 175.284 31.3674C174.767 32.0136 174.018 32.5305 173.036 32.9182C172.053 33.28 170.787 33.4609 169.236 33.4609H156.985ZM160.319 30.592H168.461C169.727 30.592 170.722 30.4499 171.446 30.1656C172.17 29.8554 172.674 29.3643 172.958 28.6923C173.268 27.9945 173.423 27.1028 173.423 26.0172C173.423 24.9059 173.255 24.0142 172.919 23.3422C172.609 22.6443 172.092 22.1532 171.368 21.8689C170.645 21.5588 169.676 21.4037 168.461 21.4037H160.319V30.592ZM160.319 18.496H168.306C169.391 18.496 170.283 18.3409 170.981 18.0308C171.704 17.7206 172.234 17.2425 172.57 16.5963C172.932 15.9243 173.113 15.0972 173.113 14.1151C173.113 13.0296 172.971 12.1637 172.687 11.5175C172.428 10.8714 171.95 10.4062 171.252 10.1219C170.554 9.8117 169.572 9.65663 168.306 9.65663H160.319V18.496ZM183.412 33.4609V6.7877H186.746V30.5145H199.191V33.4609H183.412ZM214.275 33.7711C212.208 33.7711 210.489 33.6677 209.119 33.4609C207.775 33.2283 206.703 32.8277 205.901 32.2591C205.126 31.6905 204.557 30.9022 204.195 29.8942C203.834 28.8603 203.601 27.5551 203.498 25.9785C203.394 24.376 203.343 22.4246 203.343 20.1243C203.343 17.824 203.394 15.8856 203.498 14.3089C203.601 12.7065 203.834 11.4012 204.195 10.3932C204.557 9.3594 205.126 8.55817 205.901 7.98955C206.703 7.42093 207.775 7.03324 209.119 6.82647C210.489 6.59386 212.208 6.47755 214.275 6.47755C216.343 6.47755 218.049 6.59386 219.393 6.82647C220.763 7.03324 221.835 7.42093 222.611 7.98955C223.412 8.55817 223.994 9.3594 224.355 10.3932C224.717 11.4012 224.95 12.7065 225.053 14.3089C225.157 15.8856 225.208 17.824 225.208 20.1243C225.208 22.4246 225.157 24.376 225.053 25.9785C224.95 27.5551 224.717 28.8603 224.355 29.8942C223.994 30.9022 223.412 31.6905 222.611 32.2591C221.835 32.8277 220.763 33.2283 219.393 33.4609C218.049 33.6677 216.343 33.7711 214.275 33.7711ZM214.275 30.9022C215.697 30.9022 216.873 30.8634 217.803 30.7859C218.734 30.6825 219.471 30.4628 220.013 30.1268C220.556 29.7908 220.97 29.248 221.254 28.4985C221.538 27.7231 221.706 26.6634 221.758 25.3194C221.835 23.9754 221.874 22.2437 221.874 20.1243C221.874 18.0049 221.835 16.2732 221.758 14.9292C221.706 13.5852 221.538 12.5385 221.254 11.7889C220.97 11.0135 220.556 10.4579 220.013 10.1219C219.471 9.78586 218.734 9.57909 217.803 9.50155C216.873 9.39817 215.697 9.34647 214.275 9.34647C212.854 9.34647 211.678 9.39817 210.747 9.50155C209.843 9.57909 209.106 9.78586 208.538 10.1219C207.995 10.4579 207.581 11.0135 207.297 11.7889C207.039 12.5385 206.871 13.5852 206.793 14.9292C206.715 16.2732 206.677 18.0049 206.677 20.1243C206.677 22.2437 206.715 23.9754 206.793 25.3194C206.871 26.6634 207.039 27.7231 207.297 28.4985C207.581 29.248 207.995 29.7908 208.538 30.1268C209.106 30.4628 209.843 30.6825 210.747 30.7859C211.678 30.8634 212.854 30.9022 214.275 30.9022ZM241.871 33.7711C240.01 33.7711 238.447 33.6677 237.18 33.4609C235.914 33.2283 234.88 32.8406 234.079 32.2979C233.277 31.7292 232.657 30.9409 232.218 29.9329C231.804 28.8991 231.52 27.5809 231.365 25.9785C231.21 24.376 231.132 22.4246 231.132 20.1243C231.132 17.824 231.21 15.8856 231.365 14.3089C231.52 12.7065 231.804 11.4012 232.218 10.3932C232.657 9.3594 233.277 8.55817 234.079 7.98955C234.88 7.42093 235.914 7.03324 237.18 6.82647C238.447 6.59386 240.01 6.47755 241.871 6.47755C242.595 6.47755 243.332 6.5034 244.081 6.55509C244.856 6.60678 245.593 6.6714 246.291 6.74894C246.989 6.82647 247.596 6.92986 248.113 7.05909V9.73416C247.519 9.65663 246.898 9.59201 246.252 9.54032C245.632 9.46278 245.012 9.41109 244.391 9.38524C243.771 9.3594 243.215 9.34647 242.724 9.34647C241.225 9.34647 239.972 9.41109 238.964 9.54032C237.956 9.66955 237.154 9.92801 236.56 10.3157C235.965 10.6776 235.513 11.2591 235.203 12.0603C234.919 12.8357 234.725 13.8825 234.621 15.2006C234.518 16.4929 234.466 18.1342 234.466 20.1243C234.466 22.1145 234.518 23.7686 234.621 25.0868C234.725 26.3791 234.919 27.4259 235.203 28.2271C235.513 29.0025 235.965 29.584 236.56 29.9717C237.154 30.3336 237.956 30.5791 238.964 30.7083C239.972 30.8376 241.225 30.9022 242.724 30.9022C243.603 30.9022 244.559 30.8634 245.593 30.7859C246.627 30.7083 247.519 30.6179 248.268 30.5145V33.2671C247.725 33.3705 247.079 33.448 246.33 33.4997C245.606 33.5772 244.856 33.6419 244.081 33.6936C243.306 33.7452 242.569 33.7711 241.871 33.7711ZM254.363 33.4609V6.7877H257.697V18.4572H262.465L271.615 6.7877H275.298L265.179 19.7366L275.414 33.4609H271.537L262.465 21.3649H257.697V33.4609H254.363Z" fill="#3BB54A"></path></g><defs><clipPath id="clip0_3953_985"><rect width="331.154" height="42" fill="white"></rect></clipPath></defs></svg> 