<svg id="Layer_1" data-name="Layer 1" xmlns="http://www.w3.org/2000/svg" viewBox="0 0 140 60"><defs><style>.cls-1{fill:#013f5f;opacity:0;}.cls-2{fill:#fe4815;}.cls-3{fill:#fd4815;}.cls-4{fill:#fc4716;}.cls-5{fill:#fd4714;}.cls-6{fill:#fc4715;}.cls-7{fill:#fd4916;}.cls-8{fill:#fc4816;}.cls-9{fill:#0d179d;}.cls-10{fill:#0a169f;}.cls-11{fill:#02109e;}.cls-12{fill:#0a129a;}.cls-13{fill:#0e1ca3;}</style></defs><rect class="cls-1" width="140" height="60"/><path class="cls-2" d="M48,45.86c-1.17,0-2.33,0-3.5,0-.42,0-.55-.16-.51-.55,0-.13,0-.26,0-.39,0-9.6,0-19.21,0-28.82,0-.83.24-1,1-.95,1.11.07,2.22,0,3.34,0a2.57,2.57,0,0,0,.08.38L52,28.42c.4,1.39.79,2.79,1.18,4.19a16.38,16.38,0,0,0,0-4c.27-.23.12-.54.12-.8,0-3.93,0-7.87,0-11.8,0-.67.19-.83.83-.79,1.08.06,2.17,0,3.26,0V45.87c-1.16,0-2.33,0-3.49,0-.48,0-.53-.3-.63-.63Q51.29,39.4,49.38,33.5a1.2,1.2,0,0,0-.27-.54,12.08,12.08,0,0,0-.93-3L48,30Z"/><path class="cls-2" d="M89.41,45.85a17.43,17.43,0,0,1-4,0c-.76-.08-1.19-.72-1.26-1.81S84,41.61,84,40.39c0-2,0-4.09,0-6.13v-.39c0-1.9-.61-2.42-2.53-2.23-1.1-.11-1.1-.11-1.1,1V45.88c-1.27,0-2.54,0-3.81,0-.64,0-.84-.14-.83-.81,0-4.3,0-8.61,0-12.91,0-5.39,0-10.79,0-16.18,0-.64.16-.83.81-.82,2.49,0,5,0,7.48,0,.55,0,1.07.13,1.6.18a3.68,3.68,0,0,1,2.7,3,26.77,26.77,0,0,1,0,8.66,3.59,3.59,0,0,1-2.09,2.89c-.15.07-.35.1-.4.32A3.57,3.57,0,0,1,88.26,33a10.71,10.71,0,0,1,.1,1.7c0,2.93-.11,5.86.11,8.78A3,3,0,0,0,89.41,45.85ZM81.47,18.23c-1.1-.11-1.1-.11-1.1,1v8.37c0,1.05,0,1.05,1.09,1,1.68.1,2.15-.17,2.38-1.8A34.33,34.33,0,0,0,84,20.2C83.91,18.5,83.35,18.12,81.47,18.23Z"/><path class="cls-3" d="M26.21,46.3a23.13,23.13,0,0,1-5.31-.48,3.73,3.73,0,0,1-2.81-3.51,8.06,8.06,0,0,1,0-.85q0-11,0-21.94c0-3.1,1.36-4.5,4.52-4.78a14.66,14.66,0,0,1,4.53.18c.15.21.4.22.6.29a3.78,3.78,0,0,1,2.74,3.49c0,.43.07.87.07,1.31q0,10.33,0,20.66c0,.56-.06,1.13-.11,1.7a3.69,3.69,0,0,1-2.49,3.24C27.35,45.86,26.64,45.74,26.21,46.3Zm-1.55-3c1-.33,1.22-.66,1.22-1.94V19.49a4.87,4.87,0,0,0,0-.54,1.22,1.22,0,0,0-1.56-1.23c-1.19-.08-1.67.38-1.67,1.65q0,11.09,0,22.17C22.63,42.89,23.25,43.42,24.66,43.32Z"/><path class="cls-4" d="M130.21,43.27c.8,0,1.13-.55,1.25-1.25a4.92,4.92,0,0,0,0-.77c0-8.4,0-16.81,0-25.21,0-.7.17-.88.86-.84,1.26.06,2.54,0,3.81,0q0,12.84,0,25.67c0,.42-.05.83-.06,1.24-.08,2.08-1.33,3.15-3.18,3.72-.33.1-.73,0-1,.31a13.44,13.44,0,0,1-5.39-.34,3.68,3.68,0,0,1-2.77-3.45c0-.41,0-.82,0-1.24,0-8.37,0-16.73,0-25.1,0-.69.16-.91.86-.85,1.25.11,2.53-.11,3.78.12q0,9.93,0,19.88c0,2.2,0,4.4,0,6.6C128.32,42.93,129,43.46,130.21,43.27Z"/><path class="cls-5" d="M109.66,45.87c-1.28,0-2.55,0-3.82.05-.54,0-.58-.21-.52-.65l1.44-10.54q1.06-7.77,2.12-15.55c.16-1.16.32-2.31.46-3.47,0-.34.13-.51.51-.5l6.69,0c.15,1.07.29,2.15.44,3.23l2,14.3q.88,6.54,1.78,13.08c-1.3,0-2.59,0-3.89,0-.44,0-.56-.15-.61-.57-.3-2.81-.64-5.6-.93-8.41,0-.53-.2-.71-.74-.68-.9,0-1.81,0-2.71,0-1.08-.07-1.08-.07-1.21,1Zm3.77-23c-.09-.8-.17-1.59-.26-2.39,0-.2,0-.43-.35-.41s-.24.24-.28.41,0,.26-.05.38l-1.23,11.4c-.12,1.09-.13,1.09,1,1,.67,0,1.34,0,2,0,.43,0,.52-.15.45-.55-.16-1.1-.28-2.2-.43-3.3C114,27.28,113.72,25.09,113.43,22.9Z"/><path class="cls-5" d="M11,46.18l-.05,0h0l-1.42.06a10.93,10.93,0,0,1-4.06-.49A3.59,3.59,0,0,1,2.8,42.13c0-2,0-3.94,0-5.91V20a11.13,11.13,0,0,1,.08-1.63A3.84,3.84,0,0,1,6.38,14.9,22.1,22.1,0,0,1,10,14.69c.72,0,1.45,0,2.17,0a3.36,3.36,0,0,0,2.11-.85v9.63c-1.08,0-2.17,0-3.26,0-.4,0-.46-.17-.45-.51,0-1.24,0-2.48,0-3.72S10,17.63,9,17.72c-1.21-.1-1.69.37-1.69,1.71q0,11.07,0,22.14c0,1.32.71,1.9,2.05,1.72a1.45,1.45,0,0,0,1.19-1.64c0-1.21,0-2.42,0-3.63,0-.44.13-.58.57-.56,1,0,2.11,0,3.17,0-.07,1.74.08,3.48-.14,5.21a3.53,3.53,0,0,1-2.33,3.19C11.57,46,11.21,45.88,11,46.18Z"/><path class="cls-6" d="M102.32,45.88c-3,0-6,0-8.94,0-.47,0-.54-.19-.54-.6q0-14.76,0-29.53c0-.43.09-.59.55-.59,3,0,6,0,9,0l0,2.91-3.75,0c-1.32,0-1.09-.12-1.09,1.11,0,2.8,0,5.6,0,8.4,0,1.08,0,1.08,1.12,1l3.45.06,0,2.8a.27.27,0,0,0,0,.12l-3.48.05c-1.08-.06-1.08-.06-1.08,1v9.2c0,1.08,0,1.08,1.11,1l3.77.06Z"/><path class="cls-7" d="M68.84,45.87c-1.37,0-2.75,0-4.12.05-.6,0-.5-.37-.5-.72V30.74c0-3.88,0-7.77,0-11.65,0-.78-.22-1-1-.92s-1.5,0-2.25,0c-.41,0-.55-.13-.53-.53,0-.62,0-1.25,0-1.87,0-.41.1-.59.56-.59,3.89,0,7.78,0,11.67,0v2.92l-2.78.06c-1.1-.08-1.1-.08-1.1,1Z"/><path class="cls-8" d="M39.55,45.87c-1.38,0-2.75,0-4.12,0-.43,0-.56-.15-.52-.54a1.61,1.61,0,0,0,0-.31q0-14.51,0-29c0-.66.12-.91.84-.86,1.27.07,2.54,0,3.81,0Z"/><path class="cls-9" d="M89.41,45.85a3,3,0,0,1-.94-2.38c-.22-2.92-.07-5.85-.11-8.78a10.71,10.71,0,0,0-.1-1.7,3.57,3.57,0,0,0-2.46-2.76c0-.22.25-.25.4-.32A3.59,3.59,0,0,0,88.29,27a26.77,26.77,0,0,0,0-8.66,3.68,3.68,0,0,0-2.7-3,3.42,3.42,0,0,1,3.81,3,28.24,28.24,0,0,1,0,8.21A3.93,3.93,0,0,1,87,30.07c0,.29.2.25.31.31a3.51,3.51,0,0,1,2.1,3.21c.07,3,.06,6,.11,8.94a4.58,4.58,0,0,0,.91,3.29C90.1,46,89.75,45.87,89.41,45.85Z"/><path class="cls-9" d="M120.71,45.87q-.88-6.54-1.78-13.08l-2-14.3c-.15-1.08-.29-2.16-.44-3.23,1.09,0,1.07-.31,1.25,1,.74,5.51,1.51,11,2.26,16.51.58,4.2,1.17,8.39,1.7,12.6C121.88,46.41,121.1,45.81,120.71,45.87Z"/><path class="cls-10" d="M26.21,46.3c.43-.56,1.14-.44,1.7-.69a3.69,3.69,0,0,0,2.49-3.24c.05-.57.11-1.14.11-1.7q0-10.33,0-20.66c0-.44-.05-.88-.07-1.31a3.78,3.78,0,0,0-2.74-3.49c-.2-.07-.45-.08-.6-.29a4.1,4.1,0,0,1,4.41,3.57,45.26,45.26,0,0,1,.09,5.21c0,5.73,0,11.46,0,17.19,0,3.31-1,4.54-4.51,5.27C26.82,46.22,26.51,46.25,26.21,46.3Z"/><path class="cls-11" d="M131.86,46.18c.28-.28.68-.21,1-.31,1.85-.57,3.1-1.64,3.18-3.72,0-.41.06-.82.06-1.24q0-12.82,0-25.67c1.1-.06,1.1-.06,1.1,1,0,8.22,0,16.44,0,24.66,0,3.46-1.29,4.79-5,5.3A2.54,2.54,0,0,1,131.86,46.18Z"/><path class="cls-10" d="M39.55,45.87V15.24c1.08-.07,1.08-.07,1.08,1V45C40.63,46,40.63,46,39.55,45.87Z"/><path class="cls-12" d="M57.33,45.87V15.24c1.1-.07,1.1-.07,1.1,1V44.9C58.44,46,58.44,46,57.33,45.87Z"/><path class="cls-13" d="M130.21,43.27c-1.17.19-1.89-.34-1.9-1.47,0-2.2,0-4.4,0-6.6q0-9.95,0-19.88c1.09-.26,1.13-.24,1.13.78V41.41C129.4,42.17,129.44,42.87,130.21,43.27Z"/><path class="cls-11" d="M68.84,45.87V19.21c0-1.07,0-1.07,1.1-1V44.9C69.94,46,69.94,46,68.84,45.87Z"/><path class="cls-12" d="M9.4,43.29c-1.34.18-2.05-.4-2.05-1.72q0-11.07,0-22.14c0-1.34.48-1.81,1.69-1.71a3,3,0,0,0-.59,2c0,7.23,0,14.46,0,21.68C8.46,42.22,8.57,42.93,9.4,43.29Z"/><path class="cls-9" d="M53.14,28.59a16.38,16.38,0,0,1,0,4c-.39-1.4-.78-2.8-1.18-4.19l-3.6-12.8a2.57,2.57,0,0,1-.08-.38c.81-.22,1.14.11,1.36.92C50.77,20.31,52,24.45,53.14,28.59Z"/><path class="cls-10" d="M48,45.86V30l.2,0a12.08,12.08,0,0,1,.93,3l0,12C49.08,46.06,49.08,46.06,48,45.86Z"/><path class="cls-11" d="M80.37,45.88V32.62c0-1.09,0-1.09,1.1-1V45C81.47,46,81.47,46,80.37,45.88Z"/><path class="cls-13" d="M98.57,42.91c-1.11.1-1.11.1-1.11-1v-9.2c0-1.08,0-1.08,1.08-1Z"/><path class="cls-13" d="M98.58,28.68c-1.12.1-1.12.1-1.12-1,0-2.8,0-5.6,0-8.4,0-1.23-.23-1.12,1.09-1.11C98.57,21.69,98.57,25.18,98.58,28.68Z"/><path class="cls-9" d="M109.66,45.87l1-8.56c.13-1.08.13-1.08,1.21-1L111,44c0,.33-.07.66-.1,1C110.77,46,110.77,46,109.66,45.87Z"/><path class="cls-13" d="M14.3,23.43V13.8c1.1-.2,1.1-.2,1.1.86v7.77C15.4,23.49,15.4,23.49,14.3,23.43Z"/><path class="cls-9" d="M11,46.18c.21-.3.57-.19.85-.29a3.53,3.53,0,0,0,2.33-3.19c.22-1.73.07-3.47.14-5.21,1.08-.06,1.09-.06,1.08,1,0,1.32.07,2.64-.07,4C15.05,45,13.62,46.26,11,46.18Z"/><path class="cls-13" d="M102.32,45.88l0-2.91c.71-.17,1,.05.94.84a9.38,9.38,0,0,0,0,1.3C103.27,46,103.27,46,102.32,45.88Z"/><path class="cls-13" d="M72.72,18.16V15.24c.75-.2,1,.1.92.85a4.61,4.61,0,0,0,0,1.23C73.74,18.08,73.46,18.35,72.72,18.16Z"/><path class="cls-13" d="M102.31,18.15l0-2.91c.74-.19,1,.08.92.85a5.06,5.06,0,0,0,0,1.23C103.36,18.1,103.06,18.36,102.31,18.15Z"/><path class="cls-10" d="M102.05,31.54l0-2.8h.78l.12.15v2.49l-.28.28h-.47Z"/><path class="cls-9" d="M9.48,46.25l1.42-.06A4.52,4.52,0,0,1,9.48,46.25Z"/><path class="cls-13" d="M102.65,31.67l.28-.28C103,31.63,102.89,31.72,102.65,31.67Z"/><path class="cls-13" d="M102.93,28.9l-.12-.15C102.93,28.73,103,28.8,102.93,28.9Z"/><path class="cls-13" d="M102.05,31.54l.13.13H102A.27.27,0,0,1,102.05,31.54Z"/><path class="cls-11" d="M81.47,18.23c0,3.45,0,6.89,0,10.34-1.09.05-1.09.05-1.09-1V19.2C80.37,18.12,80.37,18.12,81.47,18.23Z"/><path class="cls-12" d="M24.3,17.72a3.54,3.54,0,0,0-.59,2.33c0,7.07,0,14.14,0,21.21a2,2,0,0,0,.94,2.06c-1.41.1-2-.43-2-1.78q0-11.08,0-22.17C22.63,18.1,23.11,17.64,24.3,17.72Z"/><path class="cls-9" d="M112.28,33.27c-1.15.11-1.14.11-1-1l1.23-11.4c0-.12,0-.26.05-.38s0-.38.28-.41.33.21.35.41c.09.8.17,1.59.26,2.39C113.05,26.35,112.66,29.81,112.28,33.27Z"/></svg>