<svg id="Layer_1" data-name="Layer 1" xmlns="http://www.w3.org/2000/svg" viewBox="0 0 140 60"><defs><style>.cls-1{fill:#013f5f;opacity:0;}.cls-2{fill:#f80708;}.cls-3{fill:#080880;}.cls-4{fill:#1a197c;}.cls-5{fill:#242582;}.cls-6{fill:#121278;}.cls-7{fill:#151577;}.cls-8{fill:#2e2f87;}.cls-9{fill:#0a0a75;}.cls-10{fill:#39398a;}.cls-11{fill:#4e4e95;}.cls-12{fill:#04046f;}.cls-13{fill:#a3a3c8;}.cls-14{fill:#d5a4ae;}</style></defs><rect class="cls-1" width="140" height="60"/><path class="cls-2" d="M29.93,17.05c.38.44.8.3,1.24.11C48,10,65,11.16,82.17,15.78c11.24,3,22.15,7.26,33.67,9.25,7.38,1.27,14.6,1.3,21.36-2.59l.12.3.31-.11c-6.83,7.1-15.58,7.83-24.6,7.29-12.37-.75-24.32-4.14-36.48-6.21-14.84-2.52-29.45-2.65-43.5,3.85a73.2,73.2,0,0,0-13.57,8.53l.06.07c.71-4.42,2.82-8.61,2.07-13.26l1.73-1.52a2.55,2.55,0,0,0,2.4-1.58l0,0c1,.28,1.51-.5,2.15-1l.85-.53-.12-.6-.08.06c.94.62,1.42.35,1.46-.77Z"/><path class="cls-3" d="M23.34,21.38,21.61,22.9c-2.78-9-5-10.8-19.77-15.51,16.34-5.11,32.32-4.58,48.4-1.92,1,1.75,2.62.72,4,.85h.27c-.78,1.07.19,1.59.69,2.27a1.86,1.86,0,0,1-.64.25,2.61,2.61,0,0,0-2.27.31A51.57,51.57,0,0,0,31.1,15.7c-.5.29-1.43.34-1.17,1.35L30,17c-.81-.37-1.21.05-1.46.77l.08-.06-.77.17c-.85.49-2,.72-2.11,2l0,0C24.51,19.66,24.07,20.74,23.34,21.38Z"/><path class="cls-4" d="M18.36,42.62c-1.86-.51-3,0-3.79,1.68-1.16,2.66-.73,7.26.89,9,1.79,1.95,3.76.93,5.79.09-.93,3.1-4.91,3.62-7.39,1.27-2.76-2.62-2.93-9.57-.28-12.28A4.87,4.87,0,0,1,18.69,41a4,4,0,0,1,3.19,4C19.3,46.37,19.55,43.63,18.36,42.62Z"/><path class="cls-5" d="M47.24,48.55c-2.5,1.65-2-1.6-3.33-1.82C40.84,48,40.63,50.61,43.12,54c1.18,1.06,2.59.33,4.13,1a4.31,4.31,0,0,1-5.9.22c-2.4-1.74-2.36-4.37-1.68-7a3.72,3.72,0,0,1,3.86-2.92A3.43,3.43,0,0,1,47.24,48.55Z"/><path class="cls-6" d="M32.84,49.84c.12,3.95,1.89,5.46,5.78,4.61-.87,1.93-2.26,1.73-3.34,1.67a4.49,4.49,0,0,1-4.47-3.73c-.51-2.24-.54-4.49,1.37-6.14a3.68,3.68,0,0,1,4.24-.56,3.12,3.12,0,0,1,1.81,3.89Zm3.45-1.68c-1.57-2.28-2-2.25-3.26.17A3.64,3.64,0,0,0,36.29,48.16Z"/><path class="cls-7" d="M25.09,54c1.44,1,3.3-.34,4.83,1.35-2.7.89-5.11.53-7.74.33.77-3.36,3.56-5.39,4.51-8.38-1.09-1.22-2.8.14-4-1.18,2.33-.9,4.57-.19,7.27-.6C28.81,49.07,26.31,51.18,25.09,54Z"/><path class="cls-8" d="M60.1,55.67V43.4c-1-1.53-2.51-.35-3.81-2.11a42.75,42.75,0,0,1,9.32-.07c-1,1.89-2.44.8-3.48,1.71-.55,4.13.3,8.66-.44,13Z"/><path class="cls-9" d="M52,47.43c-2.08,2.43-1,5.74-2.79,8.38V40.57c2.28,2.17.3,4.75,1.76,6.48Z"/><path class="cls-5" d="M100.61,54.17c.47-1.69-.82-2.21-1.9-2.86S96.24,50,96,48.38c1.42-3.35,3.25-3.84,6.11-1.52-1.26.63-2.49-.7-3.65,0a4.94,4.94,0,0,0-.62.67c.14,1.78,2,1.86,3,2.74,1.82,1.51,2.93,3.11.3,4.91a.36.36,0,0,1-.4-.15Z"/><path class="cls-10" d="M81.86,55.48c-1.64-.64-3.1,1.54-4.93.09-1.74-2.44-1.92-7.66,0-10.06,1.53,2.77-.15,5.83,1,8.42,1.5,1.12,2.37.12,3.23-.88A2.66,2.66,0,0,1,81.86,55.48Z"/><path class="cls-5" d="M52,47.43l-1-.38a4.61,4.61,0,0,1,3.32-1.9c4.52,2.7,1.3,7.13,1.92,10.7-3-2.18-.53-5.66-2.43-8.76C53.59,46.84,52.79,47.28,52,47.43Z"/><path class="cls-5" d="M68.44,45.78c2.78-.69,4.12.9,4.63,3.26.58,2.65.65,5.31-2.5,6.64l-.11-1c1.82-4.4,1.17-7.07-2-8.17Z"/><path class="cls-11" d="M92.6,55.84a64,64,0,0,1,0-10.17l1.28,0V55.85Z"/><path class="cls-9" d="M112.64,47.32c-2,2.51-.92,5.72-1.72,9.19C109,54,110,51.8,109.74,49.8c-.17-1.35.21-2.95-1.94-2.93l0-.94c1.91-1.13,2.87.7,4.19,1.37Z"/><path class="cls-4" d="M68.44,45.78l0,.72c-2.61,2.25-2.82,5.16-.64,8.53l-.73.61c-3.12-1.35-2.49-4.06-2.24-6.53C65.07,47.06,66.07,45.6,68.44,45.78Z"/><path class="cls-6" d="M112.64,47.32l-.7,0c.84-2,2.4-1.75,4.2-1.39,1.38,3.29.54,6.58.34,9.85-1.91-1.75-.9-4-1.12-6C115.17,48.06,115.3,46.2,112.64,47.32Z"/><path class="cls-12" d="M88.76,47.89c-2.32,2.19-.17,5.56-2.63,7.9,0-3.22,0-6.45.06-9.67,0-.41.75-.28,1.17-.07C87,47.31,88.23,47.33,88.76,47.89Z"/><path class="cls-9" d="M106.52,48.06c-1.16,2.44-.34,5.22-1.83,7.76V45.88c.31-.16.78-.12,1,.64A1.12,1.12,0,0,0,106.52,48.06Z"/><path class="cls-12" d="M81.86,55.48a2.66,2.66,0,0,0-.7-2.43c.19-1.26.39-2.52.58-3.78s-.42-2.48,1.15-4.22A38.24,38.24,0,0,1,83,55.48C83,55.93,82.27,55.73,81.86,55.48Z"/><path class="cls-10" d="M88.76,47.89c-.53-.56-1.77-.58-1.4-1.84,1.18,1.38,2.2-1.15,3.41-.12C91.4,47.92,89.51,47.33,88.76,47.89Z"/><path class="cls-9" d="M58.63,8.67l-2.07-.06.69-.78L58,7.15l4.16.75.08.85-1.38,0Z"/><path class="cls-6" d="M57.25,7.83l-.69.78H55.18c-.5-.68-1.47-1.2-.69-2.27A3.48,3.48,0,0,1,57.34,7Z"/><path class="cls-10" d="M93.79,40.73c.73,1.68.7,2.54-1.28,2.46C92.06,42.12,92,41.32,93.79,40.73Z"/><path class="cls-6" d="M54.22,6.32c-1.36-.13-3,.9-4-.85C51.6,5.6,53,5.49,54.22,6.32Z"/><path class="cls-10" d="M106.52,48.06a1.12,1.12,0,0,1-.84-1.54c.91.58,1.29-.72,2.07-.59l0,.94Z"/><path class="cls-13" d="M62.21,8.75l-.08-.85a2.2,2.2,0,0,1,2.2,1C63.54,9.34,62.83,9.47,62.21,8.75Z"/><path class="cls-12" d="M97.5,54.74l1,.22,2.22.12a.36.36,0,0,0,.4.15c-1.42,1.16-3,.78-4.56.45Z"/><path class="cls-12" d="M67.11,55.64l.73-.61,2.62-.36.11,1A4.38,4.38,0,0,1,67.11,55.64Z"/><path class="cls-11" d="M97.5,54.74l-.93.94c-1-.15-.84-.78-.54-1.44A1.44,1.44,0,0,1,97.5,54.74Z"/><path class="cls-13" d="M58.63,8.67l2.2,0A1.73,1.73,0,0,1,58.63,8.67Z"/><path class="cls-13" d="M52.27,9.16a2.61,2.61,0,0,1,2.27-.31A2,2,0,0,1,52.27,9.16Z"/><path class="cls-11" d="M100.73,55.08,98.51,55l2.1-.79Z"/><path class="cls-14" d="M137.2,22.44c.14-.64.53-.54,1-.38,0,.46-.1.67-.53.57l-.31.11Z"/><path class="cls-14" d="M18.79,36.62l-.22.52c-.36-.47.08-.39.28-.46Z"/><path class="cls-2" d="M18.85,36.68c0-.44.15-.76.69-.52l-.06-.07c-.11.34-.26.62-.69.53Z"/><path class="cls-3" d="M57.25,7.83,57.34,7a.6.6,0,0,1,.63.16Z"/><path class="cls-14" d="M25.7,19.83c.15-1.25,1.26-1.48,2.11-2l0,1C27.21,19.33,26.7,20.11,25.7,19.83Z"/><path class="cls-14" d="M23.34,21.38c.73-.64,1.17-1.72,2.4-1.58A2.55,2.55,0,0,1,23.34,21.38Z"/></svg>