<svg id="Layer_1" data-name="Layer 1" xmlns="http://www.w3.org/2000/svg" viewBox="0 0 140 60"><defs><style>.cls-1{fill:#013f5f;opacity:0;}.cls-2{fill:#d20131;}.cls-3{fill:#8e0144;}.cls-4{fill:#ea0204;}.cls-5{fill:#b6024b;}.cls-6{fill:#99024b;}.cls-7{fill:#af0151;}.cls-8{fill:#dd0221;}.cls-9{fill:#c5033f;}.cls-10{fill:#e2030b;}.cls-11{fill:#d80110;}.cls-12{fill:#ec1e06;}.cls-13{fill:#d00216;}.cls-14{fill:#b2034a;}.cls-15{fill:#ed3809;}.cls-16{fill:#b20d48;}</style></defs><rect class="cls-1" width="140" height="60"/><path class="cls-2" d="M67.23,28.09c.69.06.71-.61.94-1a19.47,19.47,0,0,1,3.38-4.23,7,7,0,0,1,4.4-2c.29,2.09-.08,4.35,1.53,6.12a1,1,0,0,1,.17.32,4.43,4.43,0,0,1-2.47,5.75l-.45-3.42c-.06-.53-.06-1.15-.69-1.32s-1,.33-1.34.72A25.5,25.5,0,0,0,69,35.3c-.46.92-.88,1.86-1.31,2.79a2,2,0,0,0-1.19.24,25.9,25.9,0,0,1-6.63,2.54,7.24,7.24,0,0,1-.45-2.15c-.25-.16-.39,0-.55.13a18.58,18.58,0,0,1-11.6,4c-3.81.1-7.39-.48-10.56-2.74a2,2,0,0,1-.25-.25c.1-.64.6-.67,1.1-.79,1.86-.44,3.82-.51,5.59-1.34,4.4,2,8.29.73,12-1.9a32.55,32.55,0,0,0,3.3-3,11.26,11.26,0,0,0,5.28-2.56A12.26,12.26,0,0,1,67.23,28.09Z"/><path class="cls-3" d="M9.24,17.11a12.35,12.35,0,0,1-1-6c.34-2.86,2.24-4.5,4.69-5.65a31.33,31.33,0,0,1,9.3-2.49,113.17,113.17,0,0,1,14-1.08c1.62,0,3.25.16,4.86,0,2.1-.2,3.4,1.43,2.1,3.53-1,0-2.09-.07-3.12,0-3.16.32-6.32.61-9.5.7a30.32,30.32,0,0,0-4.46.25c-4,.71-7.93,1.68-11.23,4.27-2.09,1.65-4.17,3.29-5,6A.68.68,0,0,1,9.24,17.11Z"/><path class="cls-4" d="M83.19,37.37a1.89,1.89,0,0,0,2.6-.22,11.79,11.79,0,0,0,3.09-3.85c.49-.93,0-2,.17-2.94.33,0,.72-.08,1,.07a5.36,5.36,0,0,0,4.07.4,12.16,12.16,0,0,1,2.82-.22A18,18,0,0,0,97.6,36c.81,2.28,2.22,3,4.52,2.25a15.61,15.61,0,0,0,4-2.49,1.55,1.55,0,0,1-.44,1.47c-1.71,1.72-2.73,4.08-5,5.33-.07,0-.06.23-.08.35-3.21.37-7.73-.61-9.88-3.78-1.93,1.68-3.94,3.26-6.56,3.58-1.82.23-3.69.54-5.39-.57a9.16,9.16,0,0,1,2-2.29A7.31,7.31,0,0,0,83.19,37.37Z"/><path class="cls-5" d="M32.49,34.09a9.38,9.38,0,0,1,1.59-8.34c2.84-3.85,9.19-6.13,13.81-4.85,2.65.74,4.81,2.17,5.76,5a5.52,5.52,0,0,0-1.8,1.06A10.71,10.71,0,0,1,47,28.85c0-2.12-.83-2.93-2.8-2.74a4.65,4.65,0,0,0-3.71,4.48c0,.33.32.34.5.48a.61.61,0,0,1-.38.58C38,32.77,35.44,34.12,32.49,34.09Z"/><path class="cls-6" d="M9.24,17.11a.68.68,0,0,0,.66-.48c.82-2.7,2.9-4.34,5-6,3.3-2.59,7.21-3.56,11.23-4.27a30.32,30.32,0,0,1,4.46-.25c3.18-.09,6.34-.38,9.5-.7,1-.11,2.08,0,3.12,0a4.81,4.81,0,0,1-5,3c-3.36-.16-6.72-.4-10.1-.28a22.68,22.68,0,0,0-5.5.85c-2.88.83-3.95,2.7-3.41,5.71.13.73.26,1.45.4,2.18a2.52,2.52,0,0,0-1.8.76c-2,2.12-4.38,3.92-6.21,6.22a7.62,7.62,0,0,0-2,3A1.28,1.28,0,0,1,8,25.73a2,2,0,0,1,.74-2.4,3.46,3.46,0,0,1,1-.43c1.69-.39,1.7-.39,1-2A28.48,28.48,0,0,1,9.24,17.11Z"/><path class="cls-7" d="M9.68,26.81a7.62,7.62,0,0,1,2-3c1.83-2.3,4.19-4.1,6.21-6.22a2.52,2.52,0,0,1,1.8-.76,32.58,32.58,0,0,1,1,3.44c.18,1,.71,1.19,1.55,1a39.11,39.11,0,0,1,6.58-.22c1.71,0,2.14.53,2,2.21-.26,2.39-1,3-3.31,3H23.89c-1.51,0-1.51,0-1.11,1.46a55.78,55.78,0,0,1-8.32,1.29c-.56-2-1.76-3-3.92-2.27A2.78,2.78,0,0,1,9.68,26.81Z"/><path class="cls-8" d="M83.19,37.37a7.31,7.31,0,0,1-2.36,2.46,9.16,9.16,0,0,0-2,2.29c-2.41-1-2.9-3.24-3.36-5.43a13.1,13.1,0,0,1-.33-3.59,4.43,4.43,0,0,0,2.47-5.75,1,1,0,0,0-.17-.32c-1.61-1.77-1.24-4-1.53-6.12,4.8-.52,6.38,1.13,6.71,6.1.17,2.56,0,5.14,0,7.71A6.85,6.85,0,0,0,83.19,37.37Z"/><path class="cls-9" d="M47,28.85a10.71,10.71,0,0,0,4.9-1.93,5.52,5.52,0,0,1,1.8-1.06c1.52,4.88-2.87,8-6.63,8.51a26.78,26.78,0,0,1-6.26-.07,5.29,5.29,0,0,0,2.36,3.44c-1.77.83-3.73.9-5.59,1.34-.5.12-1,.15-1.1.79a10.34,10.34,0,0,1-3.94-5.78c2.95,0,5.47-1.32,8.07-2.44a.61.61,0,0,0,.38-.58c.53,0,1.07,0,1.6,0C44.37,31.06,46.09,30.8,47,28.85Z"/><path class="cls-10" d="M100.7,42.89c0-.12,0-.31.08-.35,2.22-1.25,3.24-3.61,5-5.33a1.55,1.55,0,0,0,.44-1.47c.77-.85,1.51-1.74,2.34-2.52.47-.45.36-.67,0-1.06-.7-.74-1.35-1.54-2-2.32a9.81,9.81,0,0,0,6-4.75l1.26,1.67A12.57,12.57,0,0,0,113.2,31a7.73,7.73,0,0,1-.14,1.72c-.26,1.87-.4,3.75-.58,5.64A17.16,17.16,0,0,1,100.7,42.89Z"/><path class="cls-11" d="M112.48,38.39c.18-1.89.32-3.77.58-5.64A7.73,7.73,0,0,0,113.2,31a12.57,12.57,0,0,1,.54-4.27c.65.27.74-.35,1-.65,1.52-1.79,2.78-3.79,4.4-5.49a10.48,10.48,0,0,1,.07,1.48,62.44,62.44,0,0,0-.22,10c-.29.35-.53.66-.09,1.12a11.86,11.86,0,0,1,.9,1.29c-.54.37-.46,1-.45,1.47a14.73,14.73,0,0,1-.91,5.14,12.47,12.47,0,0,1-3.57-2.6C114,37.7,113.35,37.49,112.48,38.39Z"/><path class="cls-12" d="M96.91,30.61a12.16,12.16,0,0,0-2.82.22,5.36,5.36,0,0,1-4.07-.4c-.25-.15-.64-.05-1-.07a39.67,39.67,0,0,1,.19-6.72,3.16,3.16,0,0,1,3.34-3c3.87-.12,5.19.93,4.81,5.53C97.26,27.64,97.07,29.12,96.91,30.61Z"/><path class="cls-9" d="M67.23,28.09a12.26,12.26,0,0,0-3.58,2.17,11.26,11.26,0,0,1-5.28,2.56,3.54,3.54,0,0,0,.8-2.73,45.54,45.54,0,0,1,0-6.71,2.72,2.72,0,0,1,2.31-2.56,8,8,0,0,1,3.22-.1c1.79.29,2.26.86,2.51,2.7A13.82,13.82,0,0,1,67.23,28.09Z"/><path class="cls-13" d="M118.43,41.17a14.73,14.73,0,0,0,.91-5.14c0-.44-.09-1.1.45-1.47.73.79,1.42,1.63,2.21,2.35,1.83,1.67,3.63,1.42,5-.61l.21-.31c1.15-1.73,1.9-2.07,3-1.36,1.85,1.12,2.33,2.69,1.32,4.37-1.85,3.1-6.32,4.64-10.22,3.48A9.9,9.9,0,0,1,118.43,41.17Z"/><path class="cls-14" d="M45.42,18.91a2.13,2.13,0,0,1-2.32-1.34,2.25,2.25,0,0,1,.51-2.64,25,25,0,0,1,7.79-4.78c1.54-.56,2.59-.2,3.17.85,1,1.81.92,3.73-.43,4.62A21.44,21.44,0,0,1,45.42,18.91Z"/><path class="cls-9" d="M24.73,33.58a38.59,38.59,0,0,1,2.19,7.76c.29,1.55-.37,2.15-2,2.26A4.79,4.79,0,0,1,20.25,41,53.53,53.53,0,0,1,17,34.6a11.51,11.51,0,0,0,3.21-.29C21.73,34.09,23.29,34.2,24.73,33.58Z"/><path class="cls-12" d="M112.48,25.09a9.81,9.81,0,0,1-6,4.75,19.32,19.32,0,0,1-3-3.76c-1.15-1.85-1.38-3.84,1.24-5.18a18.44,18.44,0,0,1,1.93-.84,2.1,2.1,0,0,1,2.56.73A41.74,41.74,0,0,1,112.48,25.09Z"/><path class="cls-13" d="M119,32.15a62.44,62.44,0,0,1,.22-10,10.48,10.48,0,0,0-.07-1.48,2.44,2.44,0,0,1,3-1,7.46,7.46,0,0,1,3.16,1.84,2.56,2.56,0,0,1,.35,3.11,13.27,13.27,0,0,1-2.16,3A41.68,41.68,0,0,1,119,32.15Z"/><path class="cls-15" d="M93.89,11.07a5.6,5.6,0,0,1,2.42.45,3,3,0,0,1,2,2.51,3.1,3.1,0,0,1-1.47,3.08,5.89,5.89,0,0,1-5.82.42A3.12,3.12,0,0,1,90.6,12,5.4,5.4,0,0,1,93.89,11.07Z"/><path class="cls-5" d="M24.73,33.58c-1.44.62-3,.51-4.51.73A11.51,11.51,0,0,1,17,34.6c-.86-1.83-1.85-3.59-2.55-5.5a55.78,55.78,0,0,0,8.32-1.29A46.6,46.6,0,0,1,24.73,33.58Z"/><path class="cls-16" d="M124.75,55.43c.5-1.21.87-2.08,1.22-3a.85.85,0,0,1,.93-.63c.62,0,.58.48.6.89.09,1.49.17,3,.25,4.48,0,.41.09.87-.56.87s-.58-.38-.61-.76c-.06-.78-.1-1.57-.15-2.5a4.85,4.85,0,0,0-.83,1.56c-.22.4-.21,1-.93,1s-.62-.57-.83-1-.19-.81-.64-1.11c-.45.63-.16,1.35-.27,2-.07.46-.18.82-.75.76s-.49-.48-.47-.84c.08-1.53.18-3.07.26-4.6,0-.41.09-.74.59-.79a.82.82,0,0,1,1,.61C123.85,53.35,124.25,54.24,124.75,55.43Z"/><path class="cls-16" d="M15.23,54.8v2.47c0,.39,0,.78-.54.8s-.66-.38-.66-.83c0-1.49,0-3,0-4.48,0-.37,0-.79.45-.9a.87.87,0,0,1,1,.44,20.13,20.13,0,0,0,2.13,3.06c0-.86,0-1.72,0-2.59,0-.39-.11-.89.53-.92s.68.46.68.93v4.36c0,.37.06.79-.44.91a.87.87,0,0,1-1-.47c-.58-1-1.2-1.93-1.8-2.9Z"/><path class="cls-16" d="M58.52,55.21V52.74c0-.42,0-.87.6-.9s.61.43.61.86c0,1.5,0,3,0,4.49,0,.35.11.78-.44.87a.92.92,0,0,1-1-.52,20.3,20.3,0,0,0-2.08-3v2.65c0,.43,0,.87-.61.89s-.62-.41-.62-.85V52.73c0-.37-.06-.79.46-.88a.9.9,0,0,1,1.05.46c.58,1,1.2,2,1.8,3Z"/><path class="cls-16" d="M90.45,54.5c0,.81,0,1.62,0,2.42,0,.45.24,1.12-.56,1.13s-.64-.7-.65-1.19c0-1.28,0-2.57,0-3.85,0-.43-.19-1,.44-1.15s1,.25,1.26.75c.51.89,1.07,1.76,1.69,2.78a7,7,0,0,0,.22-2.6c0-.45,0-1,.66-.94s.52.54.52.93q0,2.17,0,4.35c0,.35.13.8-.39.92a1,1,0,0,1-1.12-.57c-.6-1-1.22-2-1.84-3Z"/><path class="cls-8" d="M59.84,40.87a25.9,25.9,0,0,0,6.63-2.54,2,2,0,0,1,1.19-.24,9.43,9.43,0,0,0-.74,2,4.13,4.13,0,0,1-6.18,2.39A2.45,2.45,0,0,1,59.84,40.87Z"/><path class="cls-16" d="M105.26,55a8.16,8.16,0,0,1,0-1c.08-.68-.38-1.69.29-2a3.74,3.74,0,0,1,3,.13,1.55,1.55,0,0,1,.77,2.22c-.65,1-.17,1.77.21,2.61.15.35.54.79,0,1.06s-.86-.06-1.06-.55a5.77,5.77,0,0,0-.27-.56c-.27-.53-.37-1.27-1.25-1.1s-.36.93-.47,1.4,0,.87-.61.87-.62-.44-.62-.87Zm2-1.93c-.48-.06-.88,0-.81.68,0,.42-.15.95.61.91.57,0,1.09,0,1.17-.79S107.84,53,107.28,53Z"/><path class="cls-16" d="M32.31,54.12c.47-.61.95-1.21,1.41-1.83.31-.42.74-.66,1.17-.34s0,.8-.23,1c-1.42,1.19-.6,2.28,0,3.46.24.46,1.07,1.12.29,1.56s-1-.52-1.35-1-.47-.87-.75-1.37A1.71,1.71,0,0,0,32,57.33c0,.4-.06.75-.6.74s-.57-.37-.57-.77V52.57c0-.42.1-.75.62-.73s.55.4.55.79V54Z"/><path class="cls-16" d="M117.82,54.36c0,.46,0,.92,0,1.37,0,1.69-.73,2.42-2.31,2.42s-2.23-.71-2.26-2.46c0-1,0-2.08,0-3.11,0-.43.14-.74.64-.74s.58.34.58.76c0,1.08,0,2.16,0,3.24,0,.77.31,1.19,1.09,1.19s1.08-.48,1.07-1.21c0-1,0-2.08,0-3.12,0-.42,0-.88.6-.86s.57.49.58.9S117.82,53.82,117.82,54.36Z"/><path class="cls-16" d="M38.67,54.41V52.54c0-.36.06-.67.51-.7s.69.24.69.68c0,1.08,0,2.16,0,3.24,0,.71.16,1.25,1,1.27S42,56.57,42,55.75c0-1,0-2.07,0-3.11,0-.48.12-.83.69-.8s.53.44.53.82c0,1.2,0,2.41,0,3.61s-.94,1.89-2.33,1.88-2.08-.62-2.17-1.88c0-.62,0-1.24,0-1.86Z"/><path class="cls-16" d="M27.38,57.46c0,.33-.07.5-.3.56a.74.74,0,0,1-.87-.25,1.63,1.63,0,0,0-2.84,0,.69.69,0,0,1-.86.28c-.45-.15-.32-.49-.21-.82.57-1.59,1.13-3.2,1.71-4.79.27-.73,1-.9,1.31-.3C26.14,53.86,26.73,55.72,27.38,57.46Zm-1.91-1.78-.68-1.94c-.29.77-.77,1.34-.52,2C24.36,55.94,25,55.87,25.47,55.68Z"/><path class="cls-16" d="M84,58.07c-2.21,0-2,.26-2-2,0-1.12,0-2.24,0-3.36,0-.69.25-1,1-.94s1.41,0,2.11,0c.39,0,.65.16.65.57S85.41,53,85,53h-.87c-.48,0-1-.14-1,.69s.49.58.91.63,1.24-.29,1.21.61-.71.5-1.17.55-.95-.18-.94.6c0,.52.07.79.72.86s1.8-.58,1.73.63C85.59,58.59,84.46,57.79,84,58.07Z"/><path class="cls-16" d="M47.2,54.9a10.26,10.26,0,0,1,0-1.24c.08-.59-.36-1.51.32-1.7a3.69,3.69,0,0,1,3.24.34,1.86,1.86,0,0,1,.64,2,2,2,0,0,1-2,1.66c-.78,0-1,.27-.94,1,0,.47.15,1.09-.65,1.06s-.55-.61-.56-1C47.19,56.32,47.2,55.61,47.2,54.9Zm1.24-1c0,.49-.16,1.06.68,1,.59-.06,1.07-.18,1.1-.9s-.41-.87-1-.94S48.36,53.32,48.44,53.88Z"/><path class="cls-16" d="M73.72,54.91c0-2.42,2.1-3.92,4-2.84.41.23,1,.51.73,1.11s-.76.28-1.22,0a1.31,1.31,0,0,0-2.08.76A3.17,3.17,0,0,0,75,55.16c0,1.66,1,2.22,2.46,1.49.39-.2.69-.3.95.1s0,.7-.35.91a2.81,2.81,0,0,1-2.85.22A3,3,0,0,1,73.72,54.91Z"/><path class="cls-16" d="M99.72,51.84c.54,0,1.08,0,1.62,0s.62.19.61.61-.25.58-.56.53c-1.21-.17-1.21.55-1.16,1.42s0,1.91,0,2.87c0,.37,0,.78-.53.8S99,57.7,99,57.25c0-1.13,0-2.25,0-3.37,0-.62-.13-1-.82-.88-.46,0-.86-.06-.81-.65s.54-.5.93-.51.92,0,1.38,0Z"/><path class="cls-16" d="M64.92,55.1v2.24c0,.43-.14.73-.64.73s-.59-.35-.59-.76q0-2.37,0-4.74c0-.43.13-.74.63-.73s.6.35.6.76Z"/><path class="cls-16" d="M65.41,50.91a2.24,2.24,0,0,1-1.59.64.43.43,0,0,1-.37-.63c.3-.63,1-.65,1.55-.73C65.26,50.16,65.44,50.51,65.41,50.91Z"/><path class="cls-16" d="M26,50.71c-.15.71-.85.63-1.33.83a.45.45,0,0,1-.66-.47c.06-.76.81-.65,1.29-.86S25.83,50.33,26,50.71Z"/></svg>