<?xml version="1.0" encoding="utf-8"?>
<!-- Generator: Adobe Illustrator 19.2.1, SVG Export Plug-In . SVG Version: 6.00 Build 0)  -->
<svg version="1.1" id="layer" xmlns="http://www.w3.org/2000/svg" xmlns:xlink="http://www.w3.org/1999/xlink" x="0px" y="0px"
	 viewBox="0 0 652 652" style="enable-background:new 0 0 652 652;" xml:space="preserve">
<style type="text/css">
	.st0{fill:#941B20;}
</style>
<path d="M137.3,328.3L137.3,328.3H96.9l-42.9-51.6v51.6H21.2V217.6h32.9v49.7l40.4-49.7h36l-41,51.6L137.3,328.3z M236.1,301.5
	h-50.9v-83.9h-33.5v110.6h84.5l0,0V301.5z M360.9,217.6h-33.5v52.8c0,6.8-0.6,13-3.1,18c-1.9,4.3-5,8.1-8.7,9.9
	c-3.7,2.5-8.1,3.7-13,3.7c-5,0-9.3-1.2-13-3.7c-3.7-1.9-6.8-5.6-8.7-10.6c-2.5-4.4-3.1-10.6-3.1-18v-52.2h-33.5v60.9
	c0,12.4,3.1,22.4,9.3,29.8c5.6,8.1,13,13.1,21.7,16.8c9.3,3.1,18,4.3,27.3,4.3c6.8,0,13.7-0.6,20.5-2.5c6.2-1.9,13-4.3,18.6-8.1
	c5.6-4.3,10.6-9.3,14.3-16.2c3.1-6.8,5-14.9,5-24.2l0,0V217.6z M491.3,267.3h-44.1v22.4h14.9v13c-5,0.6-9.3,1.3-13.7,1.3
	c-7.5,0-13.7-1.3-18.6-4.4c-5.6-2.5-9.3-6.2-11.8-11.2c-3.1-4.4-4.3-9.9-4.3-15.5c0-4.3,1.2-9.3,3.7-14.3c1.9-5,6.2-9.3,11.8-13.1
	c5.6-3.7,13.7-5.6,23-5.6c8.7,0,15.5,1.2,21.1,3.1c5.6,1.9,10.6,4.3,16.1,7.5v-26.7c-8.1-1.9-14.9-4.3-21.1-5.6
	c-6.2-1.2-14.3-1.9-24.2-1.9c-5.6,0-11.2,0-16.1,0.6s-9.9,2.5-14.9,4.3c-5,1.9-9.9,5-14.9,8.7c-6.2,5-10.6,11.2-13.7,18.7
	c-3.1,8.1-4.3,16.2-4.3,24.2c0,12.4,2.5,23,8.1,31.7c6.2,8.7,13.7,14.9,23,18.6c9.9,4.3,19.9,6.2,31.1,6.2c5.6,0,11.2,0,16.2-0.6
	c5-0.6,9.9-1.9,14.9-2.5c3.1-1.2,5.6-1.9,6.8-1.9c1.9-0.6,3.1-1.2,5-1.9c1.9-0.6,3.7-1.2,6.2-2.5l0,0V267.3z M155.3,338.2H151v20.5
	h-14.9v4.3H151v52.2c0,3.1,1.2,5.6,3.7,7.5c2.5,1.9,5.6,3.1,9.3,3.1c3.7,0,7.5-0.6,11.2-2.5v-5c-3.7,1.2-6.8,2.5-9.9,2.5
	c-3.7,0-6.2-1.2-6.8-2.5c-1.2-1.2-1.2-4.4-1.2-9.3v-46h15.5v-4.3h-15.5v-20.5l0,0H155.3z M297.6,424.6v-49.7H292v35.4
	c-3.1,3.7-5.6,6.2-8.1,8.1c-3.1,1.2-6.2,2.5-9.9,2.5c-5,0-8.1-1.9-11.2-4.4c-3.1-2.5-4.3-6.2-4.3-10.6v-31.1h-5.6V406
	c0,6.2,1.9,11.2,5.6,14.9c3.7,3.1,8.7,5,14.9,5c4.4,0,7.5-0.6,10.6-2.5c2.5-1.2,5-3.7,7.5-6.8h0.6v8.1l0,0H297.6z M339.2,374.2
	c-6.8,0-13,4.4-19.9,13.7v-13.1h-6.2v49.7h6.2v-31.1c6.2-9.3,12.4-14.3,18-14.3c2.5,0,6.2,1.9,11.2,5.6l3.1-5l0,0
	C346.6,376.1,342.3,374.2,339.2,374.2z M364.6,349.4h-6.2v9.3h6.2l0,0V349.4z M364.6,374.9h-6.2v49.7h6.2l0,0V374.9z M396.3,374.2
	c-5,0-9.3,1.2-12.4,3.7c-3.7,2.5-5.6,6.2-5.6,9.9c0,2.5,1.2,5,3.1,6.8c1.9,2.5,5.6,4.3,11.8,6.8c6.8,2.5,10.6,4.4,11.8,5.6
	c1.2,1.2,2.5,3.1,2.5,5c0,2.5-1.2,4.4-3.7,6.2c-1.9,1.2-5,2.5-8.1,2.5c-5,0-11.2-1.9-17.4-5v5.6c5,2.5,10.6,4.4,16.2,4.4
	c5.6,0,9.9-1.2,13-4.4c3.7-2.5,5.6-5.6,5.6-9.3c0-3.1-1.2-5.6-3.1-8.1c-1.9-2.5-6.2-4.4-12.4-6.8c-6.2-1.9-9.9-3.7-11.2-5
	c-1.9-1.9-2.5-3.1-2.5-5c0-2.5,1.3-4.3,3.7-5.6c2.5-1.9,5-2.5,8.1-2.5c5,0,9.9,1.2,15.5,5v-5.6l0,0
	C405.6,375.5,400.7,374.2,396.3,374.2z M433.6,358.7l-4.3,4.3v11.8h-14.9v4.4h14.9v36c0,3.1,1.2,5.6,3.7,7.5
	c2.5,1.9,5.6,3.1,9.3,3.1s7.5-0.6,11.2-2.5v-5c-3.7,1.2-6.8,2.5-9.9,2.5c-3.7,0-6.2-1.2-6.8-2.5c-1.2-1.2-1.2-4.4-1.2-9.3v-29.8H451
	v-4.4h-15.5v-16.2l0,0H433.6z M468.4,349.4h-5.6v9.3h5.6l0,0V349.4z M468.4,374.9h-5.6v49.7h5.6l0,0V374.9z M490.7,349.4h-6.2v75.2
	h6.2l0,0V349.4z M542.9,358.7l-51.6,39.8l34.8,26.1h8.1l-34.8-26.1l50.9-39.8l0,0H542.9z"/>
<path class="st0" d="M211.2,374.2L211.2,374.2c8.1,0,14.9,2.5,20.5,7.5c5,5,8.1,11.2,8.1,18c0,7.5-3.1,13.7-8.1,18.6
	c-5.6,5-12.4,7.5-20.5,7.5c-8.1,0-14.3-2.5-19.9-7.5c-5.6-5-8.1-11.2-8.1-18.6c0-6.8,2.5-13.1,8.1-18
	C196.9,376.7,203.1,374.2,211.2,374.2z M211.2,420.9L211.2,420.9c6.2,0,11.8-2.5,16.1-6.2c3.7-3.7,6.2-8.7,6.2-14.9
	c0-5.6-2.5-10.6-6.2-14.3c-4.3-4.3-9.9-6.2-16.1-6.2c-6.2,0-11.2,1.9-15.5,6.2c-4.3,3.7-6.2,8.7-6.2,14.3c0,6.2,1.9,11.2,6.2,14.9
	C200,418.4,205,420.9,211.2,420.9z M546.6,317.7L546.6,317.7c1.9,14.3,15.5,23.6,29.2,21.1c14.3-2.5,23.6-15.5,21.1-29.8
	c-2.5-13.7-15.5-23.6-29.8-21.1C553.5,290.3,544.1,304,546.6,317.7z M543.5,307.7L543.5,307.7c0.6-3.1,1.9-6.2,3.7-9.3
	c-1.9-1.2-4.3-1.9-6.8-0.6c-5,0.6-12.4-4.3-12.4-4.3s6.8,12.4,11.8,14.3C541,307.7,542.3,307.7,543.5,307.7z M572.1,284.7
	L572.1,284.7c0.6-2.5,0-5-1.9-6.8c-3.7-3.7-2.5-13.1-2.5-13.1s-7.5,12.4-6.2,17.4c0,1.9,0.6,2.5,1.2,3.7c1.2-0.6,2.5-0.6,4.3-1.3
	C569,284.7,570.8,284.7,572.1,284.7z M592.6,269.2L592.6,269.2c0,0-12.4,6.8-14.3,11.8c-0.6,1.2-0.6,3.1,0,4.4
	c2.5,0.6,5.6,1.9,8.1,3.1c1.9-1.2,2.5-3.7,1.9-7.5C587,276,592.6,269.2,592.6,269.2z M536.7,315.8L536.7,315.8
	c-3.7,3.1-12.4,2.5-12.4,2.5s11.8,7.5,17.4,6.2c1.2,0,1.9-0.6,3.1-1.2c-0.6-1.9-1.2-3.1-1.2-5c-0.6-1.9-0.6-3.1-0.6-5
	C541,313.3,538.5,314,536.7,315.8z M611.8,284.7L611.8,284.7c0,0-14.3,0-18,3.7c-1.2,1.2-2.5,2.5-2.5,3.7c1.9,1.9,3.7,4.3,5,6.8
	c2.5-0.6,5-2.5,5.6-5.6C603.8,288.5,611.8,284.7,611.8,284.7z M550.3,294.1L550.3,294.1c1.9-2.5,4.3-4.3,7.5-5.6
	c-0.6-2.5-2.5-3.7-5-5c-5-1.2-8.7-9.9-8.7-9.9s-0.6,14.3,3.1,18.6C548.5,292.8,549.1,294.1,550.3,294.1z M552.2,357.5L552.2,357.5
	c0,0,12.4-6.8,14.3-11.8c0.6-1.2,0.6-2.5,0.6-3.7c-3.1-0.6-6.2-1.9-9.3-3.1c-1.2,1.3-1.9,3.7-1.2,6.8
	C557.8,350.6,552.2,357.5,552.2,357.5z M608.1,310.8L608.1,310.8c3.7-3.1,13-2.5,13-2.5s-12.4-7.5-17.4-6.2
	c-2.5,0.6-3.7,1.3-4.3,2.5c0,1.2,0.6,2.5,0.6,3.7c0.6,1.9,0.6,3.1,0.6,4.3C602.5,314,605.6,313.3,608.1,310.8z M572.7,342.6
	L572.7,342.6c-0.6,1.9,0,4.3,1.9,6.2c3.7,3.7,2.5,13.1,2.5,13.1s7.5-12.4,6.8-17.4c-0.6-1.9-1.2-3.1-1.9-3.7
	c-1.9,0.6-3.7,0.6-5.6,1.2C575.2,341.9,574,341.9,572.7,342.6z M533,341.9L533,341.9c0,0,14.3,0,18-3.7c1.2-0.6,1.9-1.9,2.5-2.5
	c-2.5-1.9-5-5-6.8-7.5c-1.2,0.6-3.1,2.5-3.7,5C541,338.2,533,341.9,533,341.9z M593.8,332L593.8,332c-1.9,2.5-4.3,4.3-6.8,6.2
	c0.6,1.9,2.5,3.7,5.6,5c4.3,1.2,8.1,9.9,8.1,9.9s0.6-14.3-3.1-18.6C596.3,333.2,595.1,332.6,593.8,332z M596.9,327L596.9,327
	c1.2,1.9,4.3,3.1,7.5,1.9c5-0.6,12.4,4.3,12.4,4.3s-6.8-12.4-11.8-14.3c-1.9-0.6-3.7-0.6-5,0C599.4,322,598.2,324.5,596.9,327z"/>
</svg>
