<svg id="Layer_1" data-name="Layer 1" xmlns="http://www.w3.org/2000/svg" viewBox="0 0 140 60"><defs><style>.cls-1{fill:#013f5f;fill-opacity:0;}.cls-2{fill:#4c4c4c;}</style></defs><rect class="cls-1" width="140" height="60"/><path class="cls-2" d="M2.24,30c0-3.75,0-7.49,0-11.24,0-.32.08-.42.41-.41,1.91,0,3.82-.06,5.73,0a4.25,4.25,0,0,1,3,1.51C13.24,22,15.14,24,17,26l4.73,5.11a3.37,3.37,0,0,0,.84.71c.46.25.77.12.91-.38a3.1,3.1,0,0,0,.08-.86q0-5.94,0-11.88c0-.32.09-.4.41-.4,2,0,4,0,6,0,.32,0,.41.1.4.41,0,6.09,0,12.17,0,18.25a4.32,4.32,0,0,1-2,3.93,5.39,5.39,0,0,1-4.57.44,6,6,0,0,1-2.69-1.73L10.7,28.24l-.09-.1c-.15-.13-.3-.29-.52-.22s-.24.27-.28.45a3.33,3.33,0,0,0-.05.77q0,6,0,12.11c0,.34-.09.42-.43.42-2.23,0-4.47,0-6.7,0-.36,0-.42-.11-.42-.44Q2.25,35.62,2.24,30Z"/><path class="cls-2" d="M47.66,42.17a15.93,15.93,0,0,1-8.45-2.05,10.93,10.93,0,0,1-5.34-8.42A12.53,12.53,0,0,1,35,24.49a10.94,10.94,0,0,1,6.85-5.75,17.82,17.82,0,0,1,12,.26,10.86,10.86,0,0,1,7.3,9.65,12.28,12.28,0,0,1-1.32,7.24,11.28,11.28,0,0,1-6.72,5.44,18.53,18.53,0,0,1-3.55.75C48.86,42.16,48.2,42.09,47.66,42.17ZM41.42,29.78a12.06,12.06,0,0,0,.39,3.34A5.33,5.33,0,0,0,45.25,37a7,7,0,0,0,2.91.32,5.27,5.27,0,0,0,4.59-3.16,9.16,9.16,0,0,0,.76-3.46A11.4,11.4,0,0,0,53,26.2a5.21,5.21,0,0,0-3.9-3.52,7.55,7.55,0,0,0-2.68-.08,5.05,5.05,0,0,0-4,2.83A9.83,9.83,0,0,0,41.42,29.78Z"/><path class="cls-2" d="M88.53,32.9q0,3.62,0,7.23a.43.43,0,0,1-.35.49,29.09,29.09,0,0,1-5.9,1.24,41.42,41.42,0,0,1-5.22.3,27,27,0,0,1-7.49-.89,10.65,10.65,0,0,1-4.16-2.17,5.94,5.94,0,0,1,.4-9,13.09,13.09,0,0,1,4.36-2,38.25,38.25,0,0,1,7-1.13c1.1-.09,2.21-.14,3.32-.21a3.43,3.43,0,0,1,.56-.07c.13,0,.16-.07.16-.19,0-.46,0-.93,0-1.39a2.79,2.79,0,0,0-2.11-2.41,8.54,8.54,0,0,0-2.35-.42,17.43,17.43,0,0,0-2.89,0,30.78,30.78,0,0,0-6.4,1.21c-.27.08-.39,0-.51-.22q-.8-1.68-1.62-3.36c-.12-.24-.1-.33.17-.41a39.88,39.88,0,0,1,6.93-1.36,36,36,0,0,1,5.69-.18,16.37,16.37,0,0,1,6.32,1.35,6.67,6.67,0,0,1,4,5.78c.16,1.85,0,3.71.06,5.57C88.54,31.38,88.53,32.14,88.53,32.9ZM81.26,34c0-1.06,0-2.11,0-3.17,0-.34-.11-.42-.42-.38-.64.07-1.28.09-1.92.12a27.92,27.92,0,0,0-3.87.42A7.71,7.71,0,0,0,72,32.13,2.81,2.81,0,0,0,72,36.88a4.72,4.72,0,0,0,1.45.65,17,17,0,0,0,7.5,0c.23,0,.28-.15.27-.36C81.25,36.14,81.26,35.07,81.26,34Z"/><path class="cls-2" d="M137.07,18.46a28.26,28.26,0,0,1-2.18,2.82,39.43,39.43,0,0,1-7.95,7.42c-.24.17-.49.34-.75.49s-.25.24-.06.43c.71.71,1.41,1.43,2.1,2.14l9.38,9.63c.06.06.15.11.16.22s-.21,0-.31,0h-8a.71.71,0,0,1-.55-.23q-3.51-3.65-7-7.27l-3.82-3.95a.8.8,0,0,0-.3-.24.66.66,0,0,0,0,.39V41.2c0,.46,0,.46-.44.46h-6.77c-.29,0-.39-.06-.38-.36q0-11.28,0-22.55c0-.32.11-.39.4-.39q3.41,0,6.81,0c.29,0,.4.07.4.39q0,4.38.08,8.77c0,.1-.06.24.06.3s.18-.07.26-.12a41,41,0,0,0,6.06-4.84,46.22,46.22,0,0,0,3.9-4.26.46.46,0,0,1,.38-.21h8.55A.13.13,0,0,0,137.07,18.46Z"/><path class="cls-2" d="M93.34,30.58q0-5.31,0-10.64a.41.41,0,0,1,.36-.48A44.25,44.25,0,0,1,101.85,18c1.42-.11,2.84-.16,4.27-.14.24,0,.32.07.32.32q0,2.1,0,4.2c0,.23-.06.3-.3.3s-.71-.06-1.06,0a16.73,16.73,0,0,0-3.66.33c-.33.08-.44.2-.44.55q0,8.82,0,17.62c0,.49,0,.49-.48.49H93.7c-.3,0-.37-.08-.37-.37Q93.35,35.94,93.34,30.58Z"/><path class="cls-2" d="M137.07,18.46a.13.13,0,0,1,0-.06l0,0Z"/></svg>