<?xml version="1.0" encoding="utf-8"?>
<!-- Generator: Adobe Illustrator 19.0.0, SVG Export Plug-In . SVG Version: 6.00 Build 0)  -->
<svg version="1.1" id="layer" xmlns="http://www.w3.org/2000/svg" xmlns:xlink="http://www.w3.org/1999/xlink" x="0px" y="0px"
	 viewBox="-153 -46 652 652" style="enable-background:new -153 -46 652 652;" xml:space="preserve">
<style type="text/css">
	.st0{fill:#F7B515;}
	.st1{fill:#D3007F;}
	.st2{fill:#231815;}
</style>
<rect x="366.2" y="259.1" class="st0" width="51.2" height="14.9"/>
<rect x="366.2" y="229.2" class="st0" width="51.2" height="14.9"/>
<rect x="366.2" y="199.2" class="st0" width="51.2" height="15"/>
<rect x="417.4" y="244.1" class="st1" width="51.2" height="15"/>
<rect x="417.4" y="214.2" class="st1" width="51.2" height="15"/>
<rect x="417.4" y="184.3" class="st1" width="51.2" height="14.9"/>
<path class="st2" d="M-112.1,323.6H-125v25.2h-6.4v-59.4h19.2c10.6,0,19.2,7.6,19.2,17.1C-92.9,316-101.5,323.6-112.1,323.6
	 M-112.1,295.1H-125v22.8h12.8c7.1,0,12.9-5.1,12.9-11.4C-99.3,300.2-105,295.1-112.1,295.1"/>
<path class="st2" d="M-65.2,312.8c-7.1,0-12.9,6.3-12.9,13.2v22.8h-6.4V309h6.4v5c3.4-2.9,7.9-6.1,12.9-6.1c3.1,0,4.7,0.5,6.4,1.2
	v5.7C-60.5,313.5-62.1,312.8-65.2,312.8"/>
<path class="st2" d="M-24,348.9v-5.1c-5.6,4.8-8.2,6.3-16,6.3c-9.1,0-16-3.5-16-12.6c0-6.3,5.7-11.3,12.8-11.3H-24v-5.7
	c0-7.5-6.7-7.6-12.8-7.6c-4.3,0-9.2,0.5-12.9,1.9V309c3.4-0.8,7.2-1.2,12.9-1.2c9.9,0,19.2,1.2,19.2,12.5v28.5H-24 M-43.2,331.8
	c-3.5,0-6.5,2.5-6.5,5.7c0,6.2,3.6,7.8,9.7,7.8c9.7,0,16-4.2,16-13.5H-43.2z"/>
<path class="st2" d="M10.1,367.2c-5.7,0-9.5-0.4-12.8-1.2v-5.7c3.7,1.3,8.5,1.9,12.8,1.9c7.1,0,12.9-6,12.9-13.4v-5.1
	c-5,4.2-9.5,6.3-16.1,6.3c-9.1,0-16-3.6-16-12.6v-10.1c0-10.1,8.6-18.3,19.2-18.3h19.2v39.9C29.3,358.3,20.7,367.2,10.1,367.2
	 M23,314.7H10.1c-7.1,0-12.8,5.6-12.8,12.6v10.1c0,6.3,3.5,7.9,9.6,7.9c9.7,0,16.1-4.3,16.1-13.5V314.7z"/>
<path class="st2" d="M70.7,348.9v-5c-5,4.2-9.5,6.2-16.1,6.2c-9.1,0-16-3.5-16-12.6V309H45v28.4c0,6.3,3.6,7.9,9.6,7.9
	c9.7,0,16.1-4.2,16.1-13.5V309h6.4v39.9H70.7"/>
<path class="st2" d="M110.4,350c-17,0-25.6-4.7-25.6-21.1c0-13.4,6.5-21,22.4-21c15.9,0,16,11.6,16,23.9H91.2
	c0,11.4,8.8,13.3,19.2,13.3c6.4,0,10.2-0.8,12.8-1.9v5.7C120.7,349.5,116.8,350,110.4,350 M107.3,312.6c-9.7,0-16,4.1-16,13.5h25.7
	C116.9,318.3,116.8,312.6,107.3,312.6"/>
<path class="st2" d="M174.5,350.1c-14.5,0-25.6-7.4-25.6-21.3v-15.4c0-13.8,11.1-21.3,25.6-21.3c6.7,0,10.3,0.4,12.8,1.3v5.7
	c-3-1.3-7-2-12.8-2c-11,0-19.2,5.6-19.2,16.3v15.4c0,10.7,8.2,16.3,19.2,16.3c5.8,0,9.8-0.7,12.8-2v5.7
	C184.8,349.7,181.3,350.1,174.5,350.1"/>
<path class="st2" d="M215.7,350.1c-12.5,0-22.5-9.5-22.5-21.2c0-11.6,10-21,22.5-21c12.4,0,22.4,9.4,22.4,21
	C238.1,340.6,228.1,350.1,215.7,350.1 M215.7,312.6c-8.9,0-16.1,7.3-16.1,16.3c0,9,7.2,16.4,16.1,16.4c8.9,0,16-7.4,16-16.4
	C231.7,319.9,224.6,312.6,215.7,312.6"/>
<rect x="247.3" y="295" class="st2" width="6.4" height="53.9"/>
<rect x="263.7" y="295" class="st2" width="6.4" height="53.9"/>
<path class="st2" d="M304.5,350c-17,0-25.6-4.7-25.6-21.1c0-13.4,6.5-21,22.4-21c15.9,0,16,11.6,16,23.9h-32.1
	c0,11.4,8.8,13.3,19.2,13.3c6.5,0,10.2-0.8,12.9-1.9v5.7C314.7,349.5,310.9,350,304.5,350 M301.3,312.6c-9.7,0-16,4.1-16,13.5H311
	C311,318.3,310.9,312.6,301.3,312.6"/>
<path class="st2" d="M345.4,367.2c-5.7,0-9.4-0.4-12.8-1.2v-5.7c3.6,1.3,8.5,1.9,12.8,1.9c7.1,0,12.9-6,12.9-13.4v-5.1
	c-5,4.2-9.4,6.3-16.1,6.3c-9.1,0-16-3.6-16-12.6v-10.1c0-10.1,8.6-18.3,19.2-18.3h19.2v39.9C364.7,358.3,356.1,367.2,345.4,367.2
	 M358.3,314.7h-12.9c-7.1,0-12.8,5.6-12.8,12.6v10.1c0,6.3,3.5,7.9,9.6,7.9c9.7,0,16.1-4.3,16.1-13.5V314.7z"/>
<path class="st2" d="M398.6,350c-17,0-25.6-4.7-25.6-21.1c0-13.4,6.5-21,22.4-21c15.9,0,16,11.6,16,23.9h-32.1
	c0,11.4,8.9,13.3,19.2,13.3c6.5,0,10.1-0.8,12.9-1.9v5.7C408.9,349.5,405,350,398.6,350 M395.5,312.6c-9.7,0-16.1,4.1-16.1,13.5
	h25.7C405.1,318.3,405,312.6,395.5,312.6"/>
</svg>
