<?xml version="1.0" encoding="utf-8"?>
<!-- Generator: Adobe Illustrator 24.2.3, SVG Export Plug-In . SVG Version: 6.00 Build 0)  -->
<svg version="1.1" id="Layer_1" xmlns="http://www.w3.org/2000/svg" xmlns:xlink="http://www.w3.org/1999/xlink" x="0px" y="0px"
	 viewBox="0 0 158 54" style="enable-background:new 0 0 158 54;" xml:space="preserve">
<style type="text/css">
	.st0{fill:#17313B;}
	.st1{fill:#FF3D2E;}
</style>
<path class="st0" d="M22.2,36.7c3.2,0,6.2-1.1,8.5-3.2l1.6-1.4l7.1,7l-1.7,1.6c-4,3.8-9.5,5.9-15.4,5.9C9.6,46.6,0,36.9,0,24.1
	C0,11.2,9.3,1.8,22.2,1.8c5.8,0,11.2,2.1,15.3,5.8l1.7,1.6l-6.9,7l-1.6-1.4c-2.3-2-5.3-3.1-8.5-3.1c-7.3,0-12.4,5.1-12.4,12.4
	C9.8,31.4,15.1,36.7,22.2,36.7z"/>
<path class="st1" d="M21.9,16.7c2,0,3.9,0.8,5.3,2.2c1.4,1.4,2.2,3.3,2.2,5.3c0,2-0.8,3.9-2.2,5.3c-1.4,1.4-3.3,2.2-5.3,2.2
	S18,31,16.6,29.6c-1.4-1.4-2.2-3.3-2.2-5.3c0-2,0.8-3.9,2.2-5.3C18,17.5,19.9,16.7,21.9,16.7z"/>
<path class="st0" d="M53.2,39l-1.8-0.4l0.7-6.2h6.7v1.8h-4.9l-0.3,2.9c0.2-0.1,0.4-0.2,0.8-0.3c0.3-0.1,0.7-0.2,1.1-0.2
	c0.6,0,1.1,0.1,1.6,0.3c0.5,0.2,0.8,0.5,1.2,0.8c0.3,0.4,0.6,0.8,0.7,1.3c0.2,0.5,0.3,1.1,0.3,1.7c0,0.6-0.1,1.1-0.3,1.6
	c-0.2,0.5-0.4,0.9-0.7,1.3c-0.3,0.4-0.8,0.7-1.3,0.9c-0.5,0.2-1.1,0.3-1.8,0.3c-0.5,0-1-0.1-1.5-0.2c-0.5-0.2-0.9-0.4-1.3-0.7
	c-0.4-0.3-0.7-0.7-0.9-1.1c-0.2-0.4-0.3-0.9-0.4-1.5h2.2c0,0.4,0.1,0.7,0.3,1c0.2,0.3,0.4,0.5,0.6,0.6c0.3,0.1,0.6,0.2,0.9,0.2
	c0.3,0,0.6-0.1,0.8-0.2c0.2-0.1,0.4-0.3,0.6-0.5c0.2-0.2,0.3-0.5,0.3-0.8c0.1-0.3,0.1-0.6,0.1-1c0-0.3,0-0.7-0.1-0.9
	c-0.1-0.3-0.2-0.5-0.4-0.7c-0.2-0.2-0.4-0.4-0.7-0.5c-0.3-0.1-0.6-0.2-0.9-0.2c-0.5,0-0.8,0.1-1.1,0.2C53.6,38.7,53.4,38.8,53.2,39z
	 M70.3,42.9v1.8H62v-1.5l4-4.3c0.4-0.5,0.7-0.9,1-1.2c0.2-0.3,0.4-0.7,0.5-0.9c0.1-0.3,0.2-0.6,0.2-0.8c0-0.4-0.1-0.7-0.2-1
	c-0.1-0.3-0.3-0.5-0.6-0.7c-0.3-0.2-0.6-0.2-0.9-0.2c-0.4,0-0.8,0.1-1.1,0.3c-0.3,0.2-0.5,0.4-0.7,0.8c-0.1,0.3-0.2,0.7-0.2,1.1
	h-2.2c0-0.7,0.2-1.4,0.5-2c0.3-0.6,0.8-1.1,1.4-1.4c0.6-0.4,1.4-0.5,2.2-0.5c0.8,0,1.6,0.1,2.1,0.4c0.6,0.3,1,0.7,1.3,1.2
	c0.3,0.5,0.5,1.1,0.5,1.8c0,0.4-0.1,0.8-0.2,1.2c-0.1,0.4-0.3,0.8-0.5,1.1c-0.2,0.4-0.5,0.7-0.8,1.1c-0.3,0.4-0.7,0.8-1.1,1.2
	l-2.4,2.7H70.3z M78.7,32.4h4.5c0.9,0,1.7,0.1,2.4,0.4c0.7,0.3,1.2,0.7,1.5,1.2c0.4,0.5,0.5,1.2,0.5,2c0,0.6-0.1,1.2-0.3,1.6
	c-0.2,0.5-0.5,0.9-1,1.2c-0.4,0.3-0.9,0.6-1.4,0.7L84.2,40h-3.9l0-1.8h2.9c0.5,0,0.9-0.1,1.2-0.3c0.3-0.2,0.5-0.4,0.7-0.7
	c0.2-0.3,0.2-0.6,0.2-1c0-0.4-0.1-0.8-0.2-1.1c-0.2-0.3-0.4-0.5-0.7-0.7c-0.3-0.2-0.7-0.2-1.2-0.2H81v10.4h-2.3V32.4z M85.6,44.7
	l-2.8-5.5l2.4,0l2.9,5.4v0.1H85.6z M98.9,42.8v1.8h-6.5v-1.8H98.9z M93.1,32.4v12.3h-2.3V32.4H93.1z M98,37.5v1.8h-5.7v-1.8H98z
	 M98.9,32.4v1.8h-6.5v-1.8H98.9z M106,42.3l3.1-9.9h2.6l-4.3,12.3h-1.7L106,42.3z M103.1,32.4l3,9.9l0.4,2.4h-1.7l-4.3-12.3H103.1z
	 M116.5,32.4v12.3h-2.3V32.4H116.5z M128.2,42.8v1.8h-6.5v-1.8H128.2z M122.4,32.4v12.3h-2.3V32.4H122.4z M127.4,37.5v1.8h-5.7v-1.8
	H127.4z M128.2,32.4v1.8h-6.5v-1.8H128.2z M134,42.3l2.4-9.9h1.3l0.1,2.1l-2.6,10.2h-1.4L134,42.3z M132.4,32.4l2,9.9v2.4h-1.5
	l-2.8-12.3H132.4z M140.4,42.2l2-9.8h2.3l-2.8,12.3h-1.5L140.4,42.2z M138.4,32.4l2.4,9.9l0.1,2.3h-1.4L137,34.5l0.1-2.1H138.4z
	 M153.7,41.5c0-0.2,0-0.4-0.1-0.6c-0.1-0.2-0.2-0.4-0.4-0.5c-0.2-0.2-0.4-0.3-0.8-0.5c-0.3-0.2-0.7-0.3-1.3-0.5
	c-0.6-0.2-1.1-0.4-1.6-0.6c-0.5-0.2-0.9-0.5-1.3-0.8c-0.4-0.3-0.7-0.6-0.9-1c-0.2-0.4-0.3-0.8-0.3-1.4c0-0.5,0.1-1,0.3-1.4
	c0.2-0.4,0.5-0.8,0.9-1.1c0.4-0.3,0.9-0.5,1.4-0.7c0.5-0.2,1.1-0.2,1.8-0.2c0.9,0,1.7,0.2,2.4,0.5c0.7,0.3,1.2,0.8,1.5,1.3
	c0.4,0.6,0.5,1.2,0.5,1.9h-2.3c0-0.4-0.1-0.7-0.2-1c-0.2-0.3-0.4-0.5-0.7-0.7c-0.3-0.2-0.7-0.3-1.2-0.3c-0.5,0-0.9,0.1-1.2,0.2
	c-0.3,0.1-0.5,0.3-0.7,0.6c-0.2,0.2-0.2,0.5-0.2,0.8c0,0.2,0.1,0.4,0.2,0.6c0.1,0.2,0.3,0.3,0.5,0.5c0.2,0.2,0.5,0.3,0.8,0.4
	c0.3,0.1,0.7,0.3,1.1,0.4c0.7,0.2,1.3,0.4,1.8,0.7c0.5,0.2,0.9,0.5,1.3,0.8c0.3,0.3,0.6,0.7,0.8,1.1c0.2,0.4,0.3,0.8,0.3,1.3
	c0,0.5-0.1,1-0.3,1.4c-0.2,0.4-0.5,0.8-0.9,1.1c-0.4,0.3-0.9,0.5-1.4,0.7c-0.5,0.2-1.1,0.2-1.8,0.2c-0.6,0-1.2-0.1-1.8-0.2
	c-0.6-0.2-1.1-0.4-1.6-0.7c-0.5-0.3-0.8-0.7-1.1-1.2c-0.3-0.5-0.4-1.1-0.4-1.8h2.3c0,0.4,0.1,0.7,0.2,1c0.1,0.3,0.3,0.5,0.5,0.7
	c0.2,0.2,0.5,0.3,0.8,0.4c0.3,0.1,0.7,0.1,1,0.1c0.5,0,0.9-0.1,1.2-0.2c0.3-0.1,0.5-0.3,0.7-0.6C153.6,42,153.7,41.8,153.7,41.5z"/>
<path class="st1" d="M59.7,0.2l2.9,6.9L70,7.8l-5.7,4.9l1.7,7.3L59.7,16L53.2,20l1.7-7.3l-5.7-4.9l7.5-0.6L59.7,0.2z"/>
<path class="st1" d="M81.5,0.2l2.9,6.9l7.5,0.6l-5.7,4.9l1.7,7.3L81.5,16L75.1,20l1.7-7.3l-5.7-4.9l7.5-0.6L81.5,0.2z"/>
<path class="st1" d="M103.3,0.2l2.9,6.9l7.5,0.6l-5.7,4.9l1.7,7.3l-6.4-3.9L96.9,20l1.7-7.3l-5.7-4.9l7.5-0.6L103.3,0.2z"/>
<path class="st1" d="M125.1,0.2l2.9,6.9l7.5,0.6l-5.7,4.9l1.7,7.3l-6.4-3.9l-6.4,3.9l1.7-7.3l-5.7-4.9l7.5-0.6L125.1,0.2z"/>
<path class="st1" d="M146.9,0.2l2.9,6.9l7.5,0.6l-5.7,4.9l1.7,7.3l-6.4-3.9l-6.4,3.9l1.7-7.3l-5.7-4.9l7.5-0.6L146.9,0.2z"/>
</svg>
