<?xml version="1.0" encoding="utf-8"?>
<!-- Generator: Adobe Illustrator 24.2.3, SVG Export Plug-In . SVG Version: 6.00 Build 0)  -->
<svg version="1.1" id="Layer_1" xmlns="http://www.w3.org/2000/svg" xmlns:xlink="http://www.w3.org/1999/xlink" x="0px" y="0px"
	 viewBox="0 0 163 54" style="enable-background:new 0 0 163 54;" xml:space="preserve">
<style type="text/css">
	.st0{fill:#17313B;}
	.st1{fill:#4D88E6;}
	.st2{fill:#4385F6;}
</style>
<path class="st0" d="M58.6,37.5h1.3c0.4,0,0.8-0.1,1.1-0.2c0.3-0.2,0.5-0.4,0.6-0.6c0.1-0.3,0.2-0.6,0.2-1c0-0.4-0.1-0.7-0.2-0.9
	c-0.1-0.3-0.3-0.5-0.6-0.6c-0.3-0.1-0.6-0.2-1-0.2c-0.3,0-0.6,0.1-0.9,0.2c-0.3,0.1-0.5,0.3-0.6,0.6c-0.2,0.2-0.2,0.5-0.2,0.8H56
	c0-0.7,0.2-1.2,0.5-1.7c0.4-0.5,0.8-0.9,1.4-1.2c0.6-0.3,1.3-0.4,2-0.4c0.8,0,1.5,0.1,2.1,0.4c0.6,0.3,1.1,0.7,1.4,1.2
	c0.3,0.5,0.5,1.2,0.5,1.9c0,0.4-0.1,0.7-0.3,1.1c-0.2,0.4-0.4,0.7-0.7,1c-0.3,0.3-0.7,0.5-1.2,0.7c-0.5,0.2-1,0.3-1.6,0.3h-1.6V37.5
	z M58.6,39.3v-1.2h1.6c0.7,0,1.3,0.1,1.8,0.2c0.5,0.2,0.9,0.4,1.3,0.7c0.3,0.3,0.6,0.6,0.7,1c0.2,0.4,0.2,0.8,0.2,1.2
	c0,0.6-0.1,1.1-0.3,1.5c-0.2,0.4-0.5,0.8-0.9,1.1c-0.4,0.3-0.8,0.5-1.3,0.7c-0.5,0.2-1.1,0.2-1.7,0.2c-0.5,0-1-0.1-1.5-0.2
	c-0.5-0.1-0.9-0.4-1.3-0.6c-0.4-0.3-0.7-0.7-0.9-1.1c-0.2-0.4-0.3-1-0.3-1.5h2.2c0,0.3,0.1,0.6,0.2,0.9c0.2,0.3,0.4,0.5,0.7,0.6
	c0.3,0.1,0.6,0.2,1,0.2c0.4,0,0.8-0.1,1.1-0.2c0.3-0.2,0.5-0.4,0.7-0.6c0.2-0.3,0.2-0.6,0.2-1c0-0.5-0.1-0.8-0.3-1.1
	c-0.2-0.3-0.4-0.5-0.7-0.6c-0.3-0.1-0.7-0.2-1.1-0.2H58.6z M75.4,42.9v1.8h-8.3v-1.5l4-4.3c0.4-0.5,0.7-0.9,1-1.2
	c0.2-0.3,0.4-0.7,0.5-0.9c0.1-0.3,0.2-0.6,0.2-0.8c0-0.4-0.1-0.7-0.2-1c-0.1-0.3-0.3-0.5-0.6-0.7C71.7,34.1,71.4,34,71,34
	c-0.4,0-0.8,0.1-1.1,0.3c-0.3,0.2-0.5,0.4-0.7,0.8c-0.1,0.3-0.2,0.7-0.2,1.1h-2.2c0-0.7,0.2-1.4,0.5-2c0.3-0.6,0.8-1.1,1.4-1.4
	c0.6-0.4,1.4-0.5,2.2-0.5c0.8,0,1.6,0.1,2.1,0.4c0.6,0.3,1,0.7,1.3,1.2c0.3,0.5,0.5,1.1,0.5,1.8c0,0.4-0.1,0.8-0.2,1.2
	s-0.3,0.8-0.5,1.1c-0.2,0.4-0.5,0.7-0.8,1.1c-0.3,0.4-0.7,0.8-1.1,1.2L70,42.9H75.4z M83.8,32.4h4.5c0.9,0,1.7,0.1,2.4,0.4
	c0.7,0.3,1.2,0.7,1.5,1.2c0.4,0.5,0.5,1.2,0.5,2c0,0.6-0.1,1.2-0.3,1.6c-0.2,0.5-0.5,0.9-1,1.2c-0.4,0.3-0.9,0.6-1.4,0.7L89.3,40
	h-3.9l0-1.8h2.9c0.5,0,0.9-0.1,1.2-0.3c0.3-0.2,0.5-0.4,0.7-0.7c0.2-0.3,0.2-0.6,0.2-1c0-0.4-0.1-0.8-0.2-1.1
	c-0.2-0.3-0.4-0.5-0.7-0.7c-0.3-0.2-0.7-0.2-1.2-0.2h-2.1v10.4h-2.3V32.4z M90.7,44.7l-2.8-5.5l2.4,0l2.9,5.4v0.1H90.7z M104.1,42.8
	v1.8h-6.5v-1.8H104.1z M98.2,32.4v12.3h-2.3V32.4H98.2z M103.2,37.5v1.8h-5.7v-1.8H103.2z M104,32.4v1.8h-6.5v-1.8H104z M111.1,42.3
	l3.1-9.9h2.6l-4.3,12.3h-1.7L111.1,42.3z M108.3,32.4l3,9.9l0.4,2.4H110l-4.3-12.3H108.3z M121.6,32.4v12.3h-2.3V32.4H121.6z
	 M133.4,42.8v1.8h-6.5v-1.8H133.4z M127.6,32.4v12.3h-2.3V32.4H127.6z M132.5,37.5v1.8h-5.7v-1.8H132.5z M133.4,32.4v1.8h-6.5v-1.8
	H133.4z M139.1,42.3l2.4-9.9h1.3l0.1,2.1l-2.6,10.2H139L139.1,42.3z M137.6,32.4l2,9.9v2.4h-1.5l-2.8-12.3H137.6z M145.5,42.2l2-9.8
	h2.3L147,44.7h-1.5L145.5,42.2z M143.5,32.4l2.4,9.9l0.1,2.3h-1.4l-2.6-10.2l0.1-2.1H143.5z M158.8,41.5c0-0.2,0-0.4-0.1-0.6
	c-0.1-0.2-0.2-0.4-0.4-0.5c-0.2-0.2-0.4-0.3-0.8-0.5c-0.3-0.2-0.7-0.3-1.3-0.5c-0.6-0.2-1.1-0.4-1.6-0.6c-0.5-0.2-0.9-0.5-1.3-0.8
	c-0.4-0.3-0.7-0.6-0.9-1c-0.2-0.4-0.3-0.8-0.3-1.4c0-0.5,0.1-1,0.3-1.4c0.2-0.4,0.5-0.8,0.9-1.1c0.4-0.3,0.9-0.5,1.4-0.7
	c0.5-0.2,1.1-0.2,1.8-0.2c0.9,0,1.7,0.2,2.4,0.5c0.7,0.3,1.2,0.8,1.5,1.3c0.4,0.6,0.5,1.2,0.5,1.9h-2.3c0-0.4-0.1-0.7-0.2-1
	c-0.2-0.3-0.4-0.5-0.7-0.7c-0.3-0.2-0.7-0.3-1.2-0.3c-0.5,0-0.9,0.1-1.2,0.2c-0.3,0.1-0.5,0.3-0.7,0.6c-0.2,0.2-0.2,0.5-0.2,0.8
	c0,0.2,0.1,0.4,0.2,0.6c0.1,0.2,0.3,0.3,0.5,0.5c0.2,0.2,0.5,0.3,0.8,0.4c0.3,0.1,0.7,0.3,1.1,0.4c0.7,0.2,1.3,0.4,1.8,0.7
	c0.5,0.2,0.9,0.5,1.3,0.8c0.3,0.3,0.6,0.7,0.8,1.1c0.2,0.4,0.3,0.8,0.3,1.3c0,0.5-0.1,1-0.3,1.4c-0.2,0.4-0.5,0.8-0.9,1.1
	c-0.4,0.3-0.9,0.5-1.4,0.7c-0.5,0.2-1.1,0.2-1.8,0.2c-0.6,0-1.2-0.1-1.8-0.2c-0.6-0.2-1.1-0.4-1.6-0.7c-0.5-0.3-0.8-0.7-1.1-1.2
	c-0.3-0.5-0.4-1.1-0.4-1.8h2.3c0,0.4,0.1,0.7,0.2,1c0.1,0.3,0.3,0.5,0.5,0.7c0.2,0.2,0.5,0.3,0.8,0.4c0.3,0.1,0.7,0.1,1,0.1
	c0.5,0,0.9-0.1,1.2-0.2c0.3-0.1,0.5-0.3,0.7-0.6C158.7,42,158.8,41.8,158.8,41.5z"/>
<path class="st1" d="M64.8,0.2l2.9,6.9l7.5,0.6l-5.7,4.9l1.7,7.3L64.8,16L58.4,20l1.7-7.3l-5.7-4.9l7.5-0.6L64.8,0.2z"/>
<path class="st1" d="M86.6,0.2l2.9,6.9L97,7.8l-5.7,4.9L93,20L86.6,16L80.2,20l1.7-7.3l-5.7-4.9l7.5-0.6L86.6,0.2z"/>
<path class="st1" d="M108.5,0.2l2.9,6.9l7.5,0.6l-5.7,4.9l1.7,7.3l-6.4-3.9L102,20l1.7-7.3l-5.7-4.9l7.5-0.6L108.5,0.2z"/>
<path class="st1" d="M130.3,0.2l2.9,6.9l7.5,0.6l-5.7,4.9l1.7,7.3l-6.4-3.9l-6.4,3.9l1.7-7.3l-5.7-4.9l7.5-0.6L130.3,0.2z"/>
<path class="st1" d="M152.1,0.2l2.9,6.9l7.5,0.6l-5.7,4.9l1.7,7.3l-6.4-3.9l-6.4,3.9l1.7-7.3l-5.7-4.9l7.5-0.6L152.1,0.2z"/>
<path class="st2" d="M18.4,18c0,0-2.5-0.2-2.5,1.9v9.4h16.3v2.8c0,0.2,0,0.4-0.1,0.6c-0.1,0.2-0.2,0.3-0.3,0.5
	c-0.1,0.1-0.3,0.2-0.5,0.3c-0.2,0.1-0.4,0.1-0.6,0.1H15.9v12.2h17.8c0,0,10.8-1.6,10.9-12.2V18H18.4z M44.1,3H11.9
	C0.3,5.6,0,14.8,0,14.8v30.9h12.3V17.6c0-2.4,2.5-2.8,2.5-2.8h29.2L44.1,3z"/>
</svg>
