<?xml version="1.0" encoding="utf-8"?>
<!-- Generator: Adobe Illustrator 24.2.3, SVG Export Plug-In . SVG Version: 6.00 Build 0)  -->
<svg version="1.1" id="Layer_1" xmlns="http://www.w3.org/2000/svg" xmlns:xlink="http://www.w3.org/1999/xlink" x="0px" y="0px"
	 viewBox="0 0 163 54" style="enable-background:new 0 0 163 54;" xml:space="preserve">
<style type="text/css">
	.st0{clip-path:url(#SVGID_2_);}
	.st1{fill:#FFFFFF;filter:url(#Adobe_OpacityMaskFilter);}
	.st2{mask:url(#mask0_10806_9801_2_);}
	.st3{fill-rule:evenodd;clip-rule:evenodd;fill:#9C46FF;}
	.st4{fill:#9C46FF;}
	.st5{fill:#17313B;}
	.st6{font-family:'Montserrat-ExtraBold';}
	.st7{font-size:15.9463px;}
</style>
<g>
	<defs>
		<rect id="SVGID_1_" x="-361.6" y="-8" width="148" height="28"/>
	</defs>
	<clipPath id="SVGID_2_">
		<use xlink:href="#SVGID_1_"  style="overflow:visible;"/>
	</clipPath>
	<g class="st0">
		<defs>
			<filter id="Adobe_OpacityMaskFilter" filterUnits="userSpaceOnUse" x="-358.4" y="-4.7" width="140.7" height="22.1">
				<feColorMatrix  type="matrix" values="1 0 0 0 0  0 1 0 0 0  0 0 1 0 0  0 0 0 1 0"/>
			</filter>
		</defs>
		<mask maskUnits="userSpaceOnUse" x="-358.4" y="-4.7" width="140.7" height="22.1" id="mask0_10806_9801_2_">
			<path class="st1" d="M-213.6-8h-148v28h148V-8z"/>
		</mask>
		<g class="st2">
			<path class="st3" d="M-358.4-1c2.3,0.1,4.7,0,7,0c1.8,0,5.3-0.7,5.4,1.7c0,2.5-3.4,1.8-5.3,1.8c-2.3,0-4.8-0.1-7.1,0v3.6
				c2.3,0.1,4.8,0,7.1,0c2.3,0,5.2-0.7,5.3,2c0,3.4-0.6,6.6,2.4,8.6c0.3,0.2,0.9,0.5,1.2,0.5c0.7,0.1,1.6,0.2,2.1,0
				c1.8-0.2,3.4-2.2,3.8-3.9c0.4-1.8-0.1-5.6,0.1-7.8h12.2l0-3.7h-12.3c-0.2-3.6,1.3-3,4.7-3c2.5,0,5.1,0,7.6,0l0-3.6
				c-1.6,0-10.6-0.1-11.5,0c-1.6,0.2-2.8,1.1-3.6,2.3c-1.1,1.6-0.9,2.9-0.9,5.1v8.9c0,1,0,1.9-1,2c-2.3,0.3-0.6-4.7-1.5-7.4
				c-0.4-1.2-0.8-1.5-1-1.9c0.3-0.7,2.9-3.8-0.2-7.3c-0.5-0.6-1-1-2-1.4c-1.7-0.6-4.2-0.4-6.2-0.4c-2.1,0-4.4-0.1-6.5,0L-358.4-1z"
				/>
			<path class="st4" d="M-312.8,6.2h-3.6v6.4h-2V-3.1h5c1.7,0,3,0.4,4,1.2c0.9,0.8,1.4,2,1.4,3.5c0,1-0.3,1.8-0.8,2.6
				c-0.5,0.7-1.2,1.3-2.1,1.6l3.6,6.7v0.1h-2.2L-312.8,6.2z M-316.3,4.5h3.1c1,0,1.8-0.3,2.4-0.8c0.6-0.5,0.9-1.2,0.9-2.1
				c0-1-0.3-1.7-0.8-2.2c-0.6-0.5-1.4-0.8-2.4-0.8h-3.1V4.5z M-303.3,12.6h-1.9V0.9h1.9V12.6z M-305.4-2.2c0-0.3,0.1-0.6,0.3-0.8
				c0.2-0.2,0.5-0.3,0.9-0.3c0.4,0,0.7,0.1,0.9,0.3c0.2,0.2,0.3,0.5,0.3,0.8c0,0.3-0.1,0.6-0.3,0.8c-0.2,0.2-0.5,0.3-0.9,0.3
				c-0.4,0-0.7-0.1-0.9-0.3C-305.3-1.6-305.4-1.9-305.4-2.2z M-300.7,6.7c0-1.8,0.4-3.3,1.2-4.3c0.8-1.1,1.9-1.6,3.2-1.6
				c1.4,0,2.5,0.5,3.2,1.5l0.1-1.3h1.8v11.4c0,1.5-0.4,2.7-1.3,3.6c-0.9,0.9-2,1.3-3.5,1.3c-0.8,0-1.6-0.2-2.4-0.5
				c-0.8-0.4-1.4-0.9-1.8-1.5l1-1.2c0.8,1.1,1.8,1.6,3,1.6c0.9,0,1.7-0.3,2.2-0.8c0.5-0.5,0.8-1.3,0.8-2.3v-1
				c-0.8,0.9-1.8,1.4-3.2,1.4c-1.3,0-2.4-0.6-3.2-1.7C-300.3,10.1-300.7,8.6-300.7,6.7z M-298.7,6.9c0,1.3,0.3,2.4,0.8,3.1
				c0.5,0.7,1.3,1.1,2.2,1.1c1.2,0,2.1-0.6,2.7-1.7V4.1c-0.6-1.1-1.5-1.7-2.7-1.7c-0.9,0-1.7,0.4-2.2,1.1
				C-298.5,4.3-298.7,5.4-298.7,6.9z M-286.2,2.3c0.9-1.1,2-1.6,3.4-1.6c2.4,0,3.6,1.4,3.6,4.2v7.7h-1.9V4.9c0-0.8-0.2-1.5-0.6-1.9
				c-0.4-0.4-0.9-0.6-1.7-0.6c-0.6,0-1.2,0.2-1.7,0.5c-0.5,0.3-0.8,0.8-1.1,1.4v8.3h-1.9V-4h1.9V2.3z M-273.7-1.9v2.8h2.1v1.5h-2.1
				v7.2c0,0.5,0.1,0.8,0.3,1.1c0.2,0.2,0.5,0.3,1,0.3c0.2,0,0.5,0,0.9-0.1v1.6c-0.5,0.1-1,0.2-1.5,0.2c-0.9,0-1.5-0.3-2-0.8
				s-0.7-1.3-0.7-2.3V2.5h-2.1V0.9h2.1v-2.8H-273.7z M-260.6,5.6h-6.4v6.9h-2V-3.1h9.4v1.7h-7.4V4h6.4V5.6z M-255.4,12.6h-1.9V0.9
				h1.9V12.6z M-257.5-2.2c0-0.3,0.1-0.6,0.3-0.8c0.2-0.2,0.5-0.3,0.9-0.3c0.4,0,0.7,0.1,0.9,0.3c0.2,0.2,0.3,0.5,0.3,0.8
				c0,0.3-0.1,0.6-0.3,0.8c-0.2,0.2-0.5,0.3-0.9,0.3c-0.4,0-0.7-0.1-0.9-0.3C-257.4-1.6-257.5-1.9-257.5-2.2z M-246.8,2.7
				c-0.3-0.1-0.6-0.1-1-0.1c-1.3,0-2.1,0.6-2.6,1.7v8.3h-1.9V0.9h1.9l0,1.3c0.6-1,1.5-1.6,2.7-1.6c0.4,0,0.7,0.1,0.9,0.2V2.7z
				 M-243.2,0.9l0.1,1.3c0.8-1,2-1.5,3.4-1.5c1.6,0,2.7,0.6,3.2,1.9c0.4-0.6,0.9-1,1.5-1.4c0.6-0.3,1.3-0.5,2.1-0.5
				c2.5,0,3.7,1.4,3.8,4.1v7.8h-1.9V4.9c0-0.8-0.2-1.5-0.6-1.9c-0.4-0.4-1-0.6-1.9-0.6c-0.7,0-1.3,0.2-1.8,0.7
				c-0.5,0.4-0.8,1-0.8,1.8v7.7h-1.9V4.9c0-1.7-0.8-2.5-2.4-2.5c-1.3,0-2.1,0.6-2.6,1.7v8.5h-1.9V0.9H-243.2z M-219.6,9.5
				c0-0.5-0.2-1-0.6-1.3c-0.4-0.3-1.1-0.6-2.1-0.8c-1-0.2-1.8-0.5-2.3-0.8c-0.6-0.3-1-0.7-1.3-1.1c-0.3-0.4-0.4-0.9-0.4-1.5
				c0-1,0.4-1.8,1.2-2.4c0.8-0.7,1.8-1,3-1c1.3,0,2.3,0.3,3.1,1c0.8,0.7,1.2,1.6,1.2,2.6h-1.9c0-0.5-0.2-1-0.7-1.4
				c-0.4-0.4-1-0.6-1.7-0.6c-0.7,0-1.3,0.2-1.7,0.5c-0.4,0.3-0.6,0.7-0.6,1.2c0,0.5,0.2,0.8,0.6,1.1c0.4,0.2,1,0.5,2,0.7
				c1,0.2,1.8,0.5,2.4,0.8c0.6,0.3,1,0.7,1.3,1.1c0.3,0.4,0.4,1,0.4,1.6c0,1-0.4,1.9-1.2,2.5c-0.8,0.6-1.9,0.9-3.2,0.9
				c-0.9,0-1.7-0.2-2.4-0.5s-1.2-0.8-1.6-1.4c-0.4-0.6-0.6-1.2-0.6-1.9h1.9c0,0.7,0.3,1.2,0.8,1.6c0.5,0.4,1.1,0.6,1.9,0.6
				c0.7,0,1.3-0.2,1.8-0.5C-219.8,10.4-219.6,10-219.6,9.5z"/>
		</g>
	</g>
</g>
<path class="st3" d="M-30.4,1.8v8.9"/>
<path class="st5" d="M69.7,30.3h3.8c0.8,0,1.5,0.1,2,0.4c0.6,0.2,1,0.6,1.3,1.1c0.3,0.5,0.5,1,0.5,1.7c0,0.5-0.1,1-0.3,1.4
	c-0.2,0.4-0.5,0.7-0.8,1c-0.3,0.3-0.8,0.5-1.2,0.6l-0.6,0.3H71l0-1.6h2.5c0.4,0,0.7-0.1,1-0.2c0.3-0.1,0.5-0.3,0.6-0.6
	c0.1-0.3,0.2-0.5,0.2-0.9c0-0.3-0.1-0.7-0.2-0.9c-0.1-0.3-0.3-0.5-0.6-0.6c-0.3-0.1-0.6-0.2-1-0.2h-1.8v8.9h-2V30.3z M75.6,40.8
	l-2.4-4.7l2.1,0l2.4,4.6v0.1H75.6z M86.9,39.2v1.5h-5.6v-1.5H86.9z M82,30.3v10.4h-2V30.3H82z M86.2,34.6v1.5h-4.8v-1.5H86.2z
	 M86.9,30.3v1.6h-5.5v-1.6H86.9z M92.9,38.7l2.6-8.4h2.2L94,40.8h-1.5L92.9,38.7z M90.5,30.3l2.6,8.4l0.4,2H92l-3.7-10.4H90.5z
	 M101.9,30.3v10.4h-2V30.3H101.9z M111.9,39.2v1.5h-5.6v-1.5H111.9z M107,30.3v10.4h-2V30.3H107z M111.2,34.6v1.5h-4.8v-1.5H111.2z
	 M111.9,30.3v1.6h-5.5v-1.6H111.9z M116.8,38.8l2.1-8.4h1.1l0.1,1.8l-2.2,8.7h-1.2L116.8,38.8z M115.5,30.3l1.7,8.4v2h-1.3
	l-2.4-10.4H115.5z M122.3,38.7l1.7-8.4h2l-2.4,10.4h-1.3L122.3,38.7z M120.6,30.3l2.1,8.5l0.1,2h-1.2l-2.2-8.7l0.1-1.8H120.6z
	 M133.6,38.1c0-0.2,0-0.4-0.1-0.5c-0.1-0.2-0.2-0.3-0.3-0.4c-0.2-0.1-0.4-0.3-0.7-0.4c-0.3-0.1-0.6-0.3-1.1-0.4
	c-0.5-0.2-0.9-0.3-1.4-0.5c-0.4-0.2-0.8-0.4-1.1-0.7c-0.3-0.3-0.6-0.5-0.7-0.9c-0.2-0.3-0.3-0.7-0.3-1.2c0-0.4,0.1-0.8,0.3-1.2
	c0.2-0.4,0.4-0.7,0.8-0.9c0.3-0.3,0.7-0.5,1.2-0.6c0.5-0.1,1-0.2,1.5-0.2c0.8,0,1.4,0.1,2,0.4c0.6,0.3,1,0.7,1.3,1.1
	c0.3,0.5,0.5,1,0.5,1.6h-2c0-0.3-0.1-0.6-0.2-0.9c-0.1-0.2-0.3-0.4-0.6-0.6c-0.3-0.1-0.6-0.2-1-0.2c-0.4,0-0.7,0.1-1,0.2
	c-0.3,0.1-0.5,0.3-0.6,0.5c-0.1,0.2-0.2,0.4-0.2,0.7c0,0.2,0,0.4,0.1,0.5c0.1,0.1,0.2,0.3,0.4,0.4c0.2,0.1,0.4,0.3,0.7,0.4
	c0.3,0.1,0.6,0.2,0.9,0.3c0.6,0.2,1.1,0.4,1.5,0.6c0.4,0.2,0.8,0.4,1.1,0.7c0.3,0.3,0.5,0.6,0.7,0.9c0.1,0.3,0.2,0.7,0.2,1.1
	c0,0.4-0.1,0.9-0.3,1.2c-0.2,0.4-0.4,0.7-0.8,0.9c-0.3,0.2-0.7,0.4-1.2,0.6c-0.5,0.1-1,0.2-1.5,0.2c-0.5,0-1-0.1-1.5-0.2
	c-0.5-0.1-0.9-0.3-1.3-0.6c-0.4-0.3-0.7-0.6-1-1c-0.2-0.4-0.4-0.9-0.4-1.5h2c0,0.3,0.1,0.6,0.2,0.8c0.1,0.2,0.3,0.4,0.5,0.6
	c0.2,0.1,0.4,0.2,0.7,0.3c0.3,0.1,0.6,0.1,0.9,0.1c0.4,0,0.7-0.1,1-0.2c0.3-0.1,0.5-0.3,0.6-0.5C133.6,38.5,133.6,38.3,133.6,38.1z"
	/>
<path class="st4" d="M77.2,6.9l2.5,5.9l6.4,0.5l-4.9,4.2l1.5,6.2l-5.5-3.3l-5.5,3.3l1.5-6.2l-4.9-4.2l6.4-0.5L77.2,6.9z"/>
<path class="st4" d="M95.8,6.9l2.5,5.9l6.4,0.5l-4.9,4.2l1.5,6.2l-5.5-3.3l-5.5,3.3l1.5-6.2L87,13.4l6.4-0.5L95.8,6.9z"/>
<path class="st4" d="M114.4,6.9l2.5,5.9l6.4,0.5l-4.9,4.2l1.5,6.2l-5.5-3.3l-5.5,3.3l1.5-6.2l-4.9-4.2l6.4-0.5L114.4,6.9z"/>
<path class="st4" d="M133,6.9l2.5,5.9l6.4,0.5l-4.9,4.2l1.5,6.2l-5.5-3.3l-5.5,3.3l1.5-6.2l-4.9-4.2l6.4-0.5L133,6.9z"/>
<path class="st4" d="M151.6,6.9l2.5,5.9l6.4,0.5l-4.9,4.2l1.5,6.2l-5.5-3.3l-5.5,3.3l1.5-6.2l-4.9-4.2l6.4-0.5L151.6,6.9z"/>
<path class="st3" d="M2.1,13.7c4.2,0.2,8.6,0,12.7,0c3.3,0,9.7-1.2,9.8,3.1c0.1,4.5-6.2,3.3-9.6,3.3c-4.2,0-8.8-0.2-12.9,0v6.6
	c4.2,0.1,8.6,0,12.9,0c4.2,0,9.5-1.3,9.6,3.7c0.1,6.1-1.2,12,4.4,15.6c0.5,0.3,1.7,0.9,2.3,1c1.3,0.2,2.8,0.3,3.9,0.1
	c3.3-0.4,6.3-3.9,6.9-7.1c0.7-3.3-0.2-10.3,0.2-14.1h22.2l0.1-6.7H42.1c-0.4-6.5,2.4-5.4,8.5-5.4c4.6,0,9.2,0,13.8,0l0-6.6
	C61.5,7,45.2,6.8,43.5,7.1c-2.8,0.4-5.1,2.1-6.5,4.2c-1.9,2.9-1.7,5.3-1.7,9.2v16.2c0,1.8,0,3.5-1.7,3.7c-4.3,0.5-1.1-8.5-2.8-13.5
	c-0.7-2.1-1.5-2.7-1.8-3.5c0.5-1.2,5.3-6.9-0.4-13.3c-1-1.1-1.9-1.8-3.6-2.5C22.1,6.5,17.5,7,13.9,7c-3.9,0-8-0.1-11.8,0L2.1,13.7z"
	/>
<text transform="matrix(1 0 0 1 48.9512 40.7701)" class="st5 st6 st7">10</text>
</svg>
