<?xml version="1.0" encoding="utf-8"?>
<!-- Generator: Adobe Illustrator 24.2.3, SVG Export Plug-In . SVG Version: 6.00 Build 0)  -->
<svg version="1.1" xmlns="http://www.w3.org/2000/svg" xmlns:xlink="http://www.w3.org/1999/xlink" x="0px" y="0px"
	 viewBox="0 0 750 500" style="enable-background:new 0 0 750 500;" xml:space="preserve">
<style type="text/css">
	.st0{fill:url(#SVGID_1_);}
	.st1{opacity:0.4;fill:url(#SVGID_2_);}
	.st2{opacity:0.5;}
	.st3{fill:#FFFFFF;}
	.st4{fill:url(#SVGID_3_);}
	.st5{font-family:'Montserrat-Bold';}
	.st6{font-size:61.893px;}
	.st7{fill:url(#SVGID_4_);}
	.st8{fill:url(#SVGID_5_);}
	.st9{opacity:0.2;fill:#FFFFFF;}
	.st10{fill:url(#SVGID_6_);}
	.st11{fill:url(#SVGID_7_);}
	.st12{fill:url(#SVGID_8_);}
	.st13{fill:url(#SVGID_9_);}
	.st14{fill:url(#SVGID_10_);}
	.st15{fill:url(#SVGID_11_);}
	.st16{fill:url(#SVGID_12_);}
	.st17{fill:url(#SVGID_13_);}
	.st18{fill:url(#SVGID_14_);}
	.st19{fill:url(#SVGID_15_);}
	.st20{fill:url(#SVGID_16_);}
	.st21{opacity:0.4;fill:url(#SVGID_17_);}
	.st22{opacity:0.3;}
	.st23{fill:url(#SVGID_18_);}
	.st24{fill:url(#SVGID_19_);}
	.st25{fill:url(#SVGID_20_);}
	.st26{opacity:0.5;fill:#FFFFFF;}
	.st27{fill:url(#SVGID_21_);}
	.st28{fill:url(#SVGID_22_);}
	.st29{fill:url(#SVGID_23_);}
	.st30{fill:url(#SVGID_24_);}
	.st31{fill:none;stroke:#FFFFFF;strokeWidth:0.5;stroke-miterlimit:10;}
	.st32{fill:url(#SVGID_25_);}
	.st33{fill:url(#SVGID_26_);}
	.st34{fill:url(#SVGID_27_);}
	.st35{fill:url(#SVGID_28_);}
	.st36{fill:url(#SVGID_29_);}
	.st37{fill:url(#SVGID_30_);}
	.st38{fill:url(#SVGID_31_);}
	.st39{font-family:'Barlow-SemiBold';}
	.st40{font-size:30.7001px;}
	.st41{opacity:0.4;fill:url(#SVGID_32_);}
	.st42{fill:#3C2884;}
	.st43{font-size:24.7743px;}
	.st44{opacity:0.4;fill:url(#SVGID_33_);}
	.st45{opacity:0.4;}
	.st46{fill:url(#SVGID_34_);}
	.st47{fill:url(#SVGID_35_);}
	.st48{fill:url(#SVGID_36_);}
	.st49{fill:url(#SVGID_37_);}
	.st50{opacity:0.3;fill:#FFFFFF;}
	.st51{opacity:0.6;}
	.st52{fill:url(#SVGID_38_);}
	.st53{opacity:0.4;fill:url(#SVGID_39_);}
	.st54{fill:none;stroke:#FFFFFF;stroke-miterlimit:10;}
	.st55{fill:url(#SVGID_40_);}
	.st56{fill:url(#SVGID_41_);}
	.st57{fill:url(#SVGID_42_);}
	.st58{opacity:0.4;fill:url(#SVGID_43_);}
	.st59{fill:url(#SVGID_44_);}
	.st60{fill:url(#SVGID_45_);}
	.st61{fill:url(#SVGID_46_);}
	.st62{fill:url(#SVGID_47_);}
	.st63{fill:url(#SVGID_48_);}
	.st64{fill:url(#SVGID_49_);}
	.st65{fill:none;}
	.st66{fill:url(#SVGID_50_);}
	.st67{fill:none;stroke:#FFFFFF;strokeLinecap:round;stroke-miterlimit:10;}
	.st68{fill:url(#SVGID_51_);}
	.st69{fill:url(#SVGID_52_);}
	.st70{fill:url(#SVGID_53_);}
	.st71{fill:url(#SVGID_54_);}
	.st72{fill:url(#SVGID_55_);}
	.st73{fill:url(#SVGID_56_);}
	.st74{fill:url(#SVGID_57_);}
	.st75{fill:url(#SVGID_58_);}
	.st76{fill:url(#SVGID_59_);}
	.st77{fill:url(#SVGID_60_);}
	.st78{fill:url(#SVGID_61_);}
	.st79{fill:url(#SVGID_62_);}
	.st80{fill:url(#SVGID_63_);}
	.st81{opacity:0.4;fill:url(#SVGID_64_);}
	.st82{opacity:0.4;fill:url(#SVGID_65_);}
	.st83{opacity:0.4;fill:url(#SVGID_66_);}
	.st84{opacity:0.4;fill:url(#SVGID_67_);}
	.st85{opacity:0.4;fill:url(#SVGID_68_);}
	.st86{opacity:0.4;fill:url(#SVGID_69_);}
</style>
<g id="Background">
	<linearGradient id="SVGID_1_" gradientUnits="userSpaceOnUse" x1="371.182" y1="116.8441" x2="381.8484" y2="488.8437">
		<stop  offset="0" style="stop-color:#3E2E8E"/>
		<stop  offset="1" style="stop-color:#29234C"/>
	</linearGradient>
	<rect class="st0" width="750" height="500"/>
</g>
<g id="Objects">
	<g>
		<linearGradient id="SVGID_2_" gradientUnits="userSpaceOnUse" x1="367.5835" y1="283.1631" x2="679.917" y2="283.1631">
			<stop  offset="0" style="stop-color:#30A0FC"/>
			<stop  offset="1" style="stop-color:#4250D1"/>
		</linearGradient>
		<path class="st1" d="M669.4,434.9H378.1c-5.8,0-10.5-4.7-10.5-10.5V141.9c0-5.8,4.7-10.5,10.5-10.5h291.3
			c5.8,0,10.5,4.7,10.5,10.5v282.5C679.9,430.2,675.2,434.9,669.4,434.9z"/>
		<g>
			<g>
				<g class="st2">
					<image style="overflow:visible;" width="121" height="121" xlink:href="EFFFB784.png"  transform="matrix(1 0 0 1 545 194)">
					</image>
				</g>
				<path class="st3" d="M628.3,260.3v-9.6l-4.9-0.5c-0.4-1.6-1-3.1-1.8-4.5l3.1-3.8l-6.8-6.8l-3.8,3.1c-1.4-0.8-2.9-1.4-4.5-1.8
					l-0.5-4.9h-9.6l-0.5,4.9c-1.6,0.4-3.1,1.1-4.5,1.8l-3.8-3.1l-6.8,6.8l3.1,3.8c-0.8,1.4-1.4,2.9-1.8,4.5l-4.9,0.5v9.6l4.9,0.5
					c0.4,1.6,1.1,3,1.8,4.4l-3.1,3.9l6.8,6.8l3.9-3.1c1.4,0.8,2.9,1.4,4.4,1.8l0.5,5h9.6l0.5-5c1.5-0.4,3-1,4.4-1.8l3.9,3.1l6.8-6.8
					l-3.1-3.9c0.8-1.4,1.4-2.9,1.8-4.4L628.3,260.3z M604.2,266.5c-6.1,0-11-4.9-11-11c0-6.1,4.9-11,11-11c6.1,0,11,4.9,11,11
					C615.3,261.6,610.3,266.5,604.2,266.5z"/>
			</g>
			<g>
				<g class="st2">
					<image style="overflow:visible;" width="180" height="153" xlink:href="EFFFB785.png"  transform="matrix(1 0 0 1 512 300)">
					</image>
				</g>
				<linearGradient id="SVGID_3_" gradientUnits="userSpaceOnUse" x1="599.1466" y1="345.0586" x2="601.1465" y2="415.7257">
					<stop  offset="0" style="stop-color:#30A0FC"/>
					<stop  offset="1" style="stop-color:#4250D1"/>
				</linearGradient>
				<path class="st4" d="M645.9,418.3h-91.6c-4.3,0-7.9-3.5-7.9-7.9v-64.6c0-4.3,3.5-7.9,7.9-7.9h91.6c4.3,0,7.9,3.5,7.9,7.9v64.6
					C653.8,414.8,650.2,418.3,645.9,418.3z"/>
				<g>
					<text transform="matrix(1 0 0 1 550.7305 395.4092)" class="st3 st5 st6">UX</text>
				</g>
			</g>
			<g>
				<g>
					<g class="st2">
						<image style="overflow:visible;" width="92" height="121" xlink:href="EFFFB783.png"  transform="matrix(1 0 0 1 592 127)">
						</image>
					</g>
					<linearGradient id="SVGID_4_" gradientUnits="userSpaceOnUse" x1="636.917" y1="167.1249" x2="636.917" y2="206.6249">
						<stop  offset="0" style="stop-color:#30A0FC"/>
						<stop  offset="1" style="stop-color:#4250D1"/>
					</linearGradient>
					<path class="st7" d="M636.9,211.8L636.9,211.8c-5.1,0-9.3-4.1-9.3-9.3v-30c0-5.1,4.1-9.3,9.3-9.3l0,0c5.1,0,9.3,4.1,9.3,9.3v30
						C646.2,207.7,642,211.8,636.9,211.8z"/>
					<path class="st3" d="M644.6,173.1c0,4.2-3.4,7.6-7.6,7.6c-4.2,0-7.6-3.4-7.6-7.6c0-4.2,3.4-7.6,7.6-7.6
						C641.2,165.5,644.6,168.9,644.6,173.1z"/>
				</g>
				<g>
					<g class="st2">
						<image style="overflow:visible;" width="92" height="121" xlink:href="EFFFB78C.png"  transform="matrix(1 0 0 1 560 127)">
						</image>
					</g>
					<linearGradient id="SVGID_5_" gradientUnits="userSpaceOnUse" x1="606.4417" y1="163.3609" x2="603.6083" y2="202.0275">
						<stop  offset="0" style="stop-color:#F48E69"/>
						<stop  offset="1" style="stop-color:#E52E5E"/>
					</linearGradient>
					<path class="st8" d="M604.7,211.8L604.7,211.8c-5.1,0-9.3-4.1-9.3-9.3v-30c0-5.1,4.1-9.3,9.3-9.3l0,0c5.1,0,9.3,4.1,9.3,9.3v30
						C613.9,207.7,609.8,211.8,604.7,211.8z"/>
					<path class="st3" d="M612.4,202.6c0,4.2-3.4,7.6-7.6,7.6c-4.2,0-7.6-3.4-7.6-7.6c0-4.2,3.4-7.6,7.6-7.6
						C609,195,612.4,198.4,612.4,202.6z"/>
				</g>
			</g>
			<g>
				<g class="st2">
					<image style="overflow:visible;" width="138" height="147" xlink:href="EFFFB78F.png"  transform="matrix(1 0 0 1 430 305)">
					</image>
				</g>
				<g>
					<g>
						<path class="st3" d="M477.2,416.5h-8.6c-1.7,0-3-1.4-3-3v-28.8c0-1.7,1.4-3,3-3h8.6c1.7,0,3,1.4,3,3v28.8
							C480.3,415.1,478.9,416.5,477.2,416.5z"/>
						<path class="st3" d="M502.5,416.5h-8.6c-1.7,0-3-1.4-3-3v-41.1c0-1.7,1.4-3,3-3h8.6c1.7,0,3,1.4,3,3v41.1
							C505.5,415.1,504.2,416.5,502.5,416.5z"/>
						<path class="st3" d="M527.8,416.5h-8.6c-1.7,0-3-1.4-3-3v-67.3c0-1.7,1.4-3,3-3h8.6c1.7,0,3,1.4,3,3v67.3
							C530.8,415.1,529.5,416.5,527.8,416.5z"/>
					</g>
				</g>
			</g>
			<g>
				<path class="st9" d="M641.3,324.7H489c-2.4,0-4.3-1.9-4.3-4.3v-19.7c0-2.4,1.9-4.3,4.3-4.3h152.3c2.4,0,4.3,1.9,4.3,4.3v19.7
					C645.6,322.7,643.7,324.7,641.3,324.7z"/>
				<path class="st3" d="M634.9,312.5H528.4c-1.1,0-2-0.9-2-2l0,0c0-1.1,0.9-2,2-2h106.5c1.1,0,2,0.9,2,2l0,0
					C636.9,311.6,636,312.5,634.9,312.5z"/>
				<linearGradient id="SVGID_6_" gradientUnits="userSpaceOnUse" x1="513.1671" y1="310.4607" x2="594.0005" y2="310.6273">
					<stop  offset="0" style="stop-color:#30A0FC"/>
					<stop  offset="1" style="stop-color:#4250D1"/>
				</linearGradient>
				<path class="st10" d="M580.2,312.8h-59c-1.1,0-2-0.9-2-2v-0.5c0-1.1,0.9-2,2-2h59c1.1,0,2,0.9,2,2v0.5
					C582.2,311.9,581.3,312.8,580.2,312.8z"/>
				<path class="st3" d="M586.1,311.2c0,2.6-2.1,4.7-4.7,4.7c-2.6,0-4.7-2.1-4.7-4.7c0-2.6,2.1-4.7,4.7-4.7
					C584,306.5,586.1,308.6,586.1,311.2z"/>
				<g>
					<path class="st3" d="M509.1,310.4c0,3.2-2.6,5.7-5.7,5.7c-3.2,0-5.7-2.6-5.7-5.7c0-3.2,2.6-5.7,5.7-5.7
						C506.6,304.6,509.1,307.2,509.1,310.4z"/>
					<rect x="503" y="317.4" class="st3" width="0.9" height="3.4"/>
					<rect x="503" y="300.2" class="st3" width="0.9" height="3.4"/>
					
						<rect x="511.6" y="308.8" transform="matrix(6.123234e-17 -1 1 6.123234e-17 201.5234 822.5547)" class="st3" width="0.9" height="3.4"/>
					
						<rect x="494.3" y="308.8" transform="matrix(6.123234e-17 -1 1 6.123234e-17 184.2788 805.3101)" class="st3" width="0.9" height="3.4"/>
					
						<rect x="509.1" y="314.9" transform="matrix(0.7071 -0.7071 0.7071 0.7071 -74.6475 453.0081)" class="st3" width="0.9" height="3.4"/>
					
						<rect x="496.9" y="302.7" transform="matrix(0.7071 -0.7071 0.7071 0.7071 -69.5948 440.8203)" class="st3" width="0.9" height="3.4"/>
					
						<rect x="509.1" y="302.7" transform="matrix(-0.7071 -0.7071 0.7071 -0.7071 654.5429 879.9536)" class="st3" width="0.9" height="3.4"/>
					
						<rect x="496.9" y="314.9" transform="matrix(-0.7071 -0.7071 0.7071 -0.7071 625.0989 892.1501)" class="st3" width="0.9" height="3.4"/>
				</g>
			</g>
			<g>
				<path class="st9" d="M574.9,211.9h-89.7c-3.4,0-6.2-2.8-6.2-6.2v-37.7c0-3.4,2.8-6.2,6.2-6.2h89.7c3.4,0,6.2,2.8,6.2,6.2v37.7
					C581.1,209.2,578.3,211.9,574.9,211.9z"/>
				<g>
					<linearGradient id="SVGID_7_" gradientUnits="userSpaceOnUse" x1="484.75" y1="186.9131" x2="519.625" y2="186.9131">
						<stop  offset="0" style="stop-color:#FFFFFF"/>
						<stop  offset="1" style="stop-color:#E6E6E6"/>
					</linearGradient>
					<circle class="st11" cx="502.2" cy="186.9" r="17.4"/>
					<g>
						<linearGradient id="SVGID_8_" gradientUnits="userSpaceOnUse" x1="523.333" y1="174.9131" x2="575.833" y2="174.9131">
							<stop  offset="0" style="stop-color:#FFFFFF"/>
							<stop  offset="1" style="stop-color:#E6E6E6"/>
						</linearGradient>
						<path class="st12" d="M574.5,176.2h-49.9c-0.7,0-1.3-0.6-1.3-1.3l0,0c0-0.7,0.6-1.3,1.3-1.3h49.9c0.7,0,1.3,0.6,1.3,1.3l0,0
							C575.8,175.6,575.2,176.2,574.5,176.2z"/>
						<linearGradient id="SVGID_9_" gradientUnits="userSpaceOnUse" x1="523.333" y1="182.9131" x2="575.833" y2="182.9131">
							<stop  offset="0" style="stop-color:#FFFFFF"/>
							<stop  offset="1" style="stop-color:#E6E6E6"/>
						</linearGradient>
						<path class="st13" d="M574.5,184.2h-49.9c-0.7,0-1.3-0.6-1.3-1.3l0,0c0-0.7,0.6-1.3,1.3-1.3h49.9c0.7,0,1.3,0.6,1.3,1.3l0,0
							C575.8,183.6,575.2,184.2,574.5,184.2z"/>
						<linearGradient id="SVGID_10_" gradientUnits="userSpaceOnUse" x1="523.333" y1="190.9131" x2="547.208" y2="190.9131">
							<stop  offset="0" style="stop-color:#FFFFFF"/>
							<stop  offset="1" style="stop-color:#E6E6E6"/>
						</linearGradient>
						<path class="st14" d="M545.9,192.2h-21.3c-0.7,0-1.3-0.6-1.3-1.3l0,0c0-0.7,0.6-1.3,1.3-1.3h21.3c0.7,0,1.3,0.6,1.3,1.3l0,0
							C547.2,191.6,546.6,192.2,545.9,192.2z"/>
					</g>
				</g>
			</g>
			<g class="st2">
				<image style="overflow:visible;" width="121" height="121" xlink:href="EFFFB78D.png"  transform="matrix(1 0 0 1 466 194)">
				</image>
			</g>
			<linearGradient id="SVGID_11_" gradientUnits="userSpaceOnUse" x1="524.8136" y1="240.2268" x2="525.1445" y2="287.7753">
				<stop  offset="0" style="stop-color:#FFFFFF"/>
				<stop  offset="1" style="stop-color:#E6E6E6"/>
			</linearGradient>
			<path class="st15" d="M543.3,279.1h-36.8c-3.1,0-5.6-2.5-5.6-5.6v-36.7c0-3.1,2.5-5.6,5.6-5.6h36.8c3.1,0,5.6,2.5,5.6,5.6v36.7
				C548.9,276.6,546.4,279.1,543.3,279.1z"/>
			<g>
				<linearGradient id="SVGID_12_" gradientUnits="userSpaceOnUse" x1="523.5389" y1="239.2907" x2="525.1014" y2="273.1656">
					<stop  offset="0" style="stop-color:#30A0FC"/>
					<stop  offset="1" style="stop-color:#4250D1"/>
				</linearGradient>
				<rect x="509.7" y="267.3" class="st16" width="30.5" height="3.7"/>
				<g>
					<linearGradient id="SVGID_13_" gradientUnits="userSpaceOnUse" x1="523.4972" y1="238.2092" x2="525.0597" y2="272.0837">
						<stop  offset="0" style="stop-color:#30A0FC"/>
						<stop  offset="1" style="stop-color:#4250D1"/>
					</linearGradient>
					<rect x="520.6" y="246" class="st17" width="7.1" height="14.1"/>
					<linearGradient id="SVGID_14_" gradientUnits="userSpaceOnUse" x1="523.9149" y1="238.1896" x2="525.4773" y2="272.0637">
						<stop  offset="0" style="stop-color:#30A0FC"/>
						<stop  offset="1" style="stop-color:#4250D1"/>
					</linearGradient>
					<rect x="520.6" y="242.9" class="st18" width="7.1" height="2"/>
					<linearGradient id="SVGID_15_" gradientUnits="userSpaceOnUse" x1="524.039" y1="238.1841" x2="525.6014" y2="272.0582">
						<stop  offset="0" style="stop-color:#30A0FC"/>
						<stop  offset="1" style="stop-color:#4250D1"/>
					</linearGradient>
					<rect x="520.6" y="240.2" class="st19" width="7.1" height="2"/>
					<linearGradient id="SVGID_16_" gradientUnits="userSpaceOnUse" x1="523.7731" y1="238.1951" x2="525.3356" y2="272.0714">
						<stop  offset="0" style="stop-color:#30A0FC"/>
						<stop  offset="1" style="stop-color:#4250D1"/>
					</linearGradient>
					<polygon class="st20" points="524.6,265.2 514.8,254.9 534.3,254.9 					"/>
				</g>
			</g>
		</g>
	</g>
	<linearGradient id="SVGID_17_" gradientUnits="userSpaceOnUse" x1="92.5835" y1="211.5798" x2="253.5835" y2="211.5798">
		<stop  offset="0" style="stop-color:#F48E69"/>
		<stop  offset="1" style="stop-color:#E52E5E"/>
	</linearGradient>
	<path class="st21" d="M253.6,77.5v268.3c0,4.3-3.3,7.8-7.3,7.8H99.9c-4,0-7.3-3.5-7.3-7.8V77.5c0-4.3,3.3-7.8,7.3-7.8H134
		c4,0,7.3,3.5,7.3,7.8l0,0c0,4.3,3.3,7.8,7.3,7.8h48.9c4,0,7.3-3.5,7.3-7.8l0,0c0-4.3,3.3-7.8,7.3-7.8h34.1
		C250.3,69.7,253.6,73.1,253.6,77.5z"/>
	<g class="st22">
		<image style="overflow:visible;" width="180" height="153" xlink:href="EFFFB782.png"  transform="matrix(1 0 0 1 85 62)">
		</image>
	</g>
	<linearGradient id="SVGID_18_" gradientUnits="userSpaceOnUse" x1="172.735" y1="103.6076" x2="174.235" y2="209.108">
		<stop  offset="0" style="stop-color:#F48E69"/>
		<stop  offset="1" style="stop-color:#E52E5E"/>
	</linearGradient>
	<path class="st23" d="M218.2,180h-89.9c-4.8,0-8.7-3.9-8.7-8.7v-62.9c0-4.8,3.9-8.7,8.7-8.7h89.9c4.8,0,8.7,3.9,8.7,8.7v62.9
		C226.9,176.1,223,180,218.2,180z"/>
	<text transform="matrix(0.899 0 0 1 143.7002 161.1411)" class="st3 st5 st6">UI</text>
	<g>
		<g class="st22">
			<image style="overflow:visible;" width="206" height="142" xlink:href="EFFFB786.png"  transform="matrix(1 0 0 1 72 158)">
			</image>
		</g>
		<g>
			<linearGradient id="SVGID_19_" gradientUnits="userSpaceOnUse" x1="107.4165" y1="230.9133" x2="240.0835" y2="230.9133">
				<stop  offset="0" style="stop-color:#FFFFFF"/>
				<stop  offset="1" style="stop-color:#E6E6E6"/>
			</linearGradient>
			<path class="st24" d="M235.8,265.6h-124c-2.4,0-4.3-1.9-4.3-4.3v-60.7c0-2.4,1.9-4.3,4.3-4.3h124c2.4,0,4.3,1.9,4.3,4.3v60.7
				C240.1,263.6,238.1,265.6,235.8,265.6z"/>
			<g>
				<linearGradient id="SVGID_20_" gradientUnits="userSpaceOnUse" x1="143.2066" y1="202.5477" x2="141.3733" y2="283.5483">
					<stop  offset="0" style="stop-color:#F48E69"/>
					<stop  offset="1" style="stop-color:#E52E5E"/>
				</linearGradient>
				<path class="st25" d="M170,230.1c0,15.1-12.3,27.4-27.4,27.4c-15.1,0-27.4-12.3-27.4-27.4c0-15.1,12.3-27.4,27.4-27.4
					C157.7,202.7,170,215,170,230.1z"/>
				<circle class="st26" cx="142.6" cy="217.9" r="10.3"/>
				<path class="st26" d="M156.1,248.9h-27c-1.5,0-2.7-1.2-2.7-2.7l0,0c0-9,7.3-16.2,16.2-16.2l0,0c9,0,16.2,7.3,16.2,16.2l0,0
					C158.8,247.7,157.6,248.9,156.1,248.9z"/>
			</g>
			<g>
				<linearGradient id="SVGID_21_" gradientUnits="userSpaceOnUse" x1="203.587" y1="208.0592" x2="203.2083" y2="224.791">
					<stop  offset="0" style="stop-color:#F48E69"/>
					<stop  offset="1" style="stop-color:#E52E5E"/>
				</linearGradient>
				<path class="st27" d="M228.8,218.8h-50.6c-1.1,0-1.9-0.9-1.9-1.9v-6.3c0-1.1,0.9-1.9,1.9-1.9h50.6c1.1,0,1.9,0.9,1.9,1.9v6.3
					C230.7,218,229.8,218.8,228.8,218.8z"/>
				<linearGradient id="SVGID_22_" gradientUnits="userSpaceOnUse" x1="203.587" y1="223.1427" x2="203.2083" y2="239.8745">
					<stop  offset="0" style="stop-color:#F48E69"/>
					<stop  offset="1" style="stop-color:#E52E5E"/>
				</linearGradient>
				<path class="st28" d="M228.8,233.9h-50.6c-1.1,0-1.9-0.9-1.9-1.9v-6.3c0-1.1,0.9-1.9,1.9-1.9h50.6c1.1,0,1.9,0.9,1.9,1.9v6.3
					C230.7,233.1,229.8,233.9,228.8,233.9z"/>
				<linearGradient id="SVGID_23_" gradientUnits="userSpaceOnUse" x1="203.4592" y1="241.8381" x2="203.3335" y2="247.3913">
					<stop  offset="0" style="stop-color:#F48E69"/>
					<stop  offset="1" style="stop-color:#E52E5E"/>
				</linearGradient>
				<path class="st29" d="M228.4,245h-49.9c-0.7,0-1.3-0.6-1.3-1.3l0,0c0-0.7,0.6-1.3,1.3-1.3h49.9c0.7,0,1.3,0.6,1.3,1.3l0,0
					C229.7,244.5,229.1,245,228.4,245z"/>
				<linearGradient id="SVGID_24_" gradientUnits="userSpaceOnUse" x1="190.1399" y1="248.016" x2="190.0343" y2="252.6779">
					<stop  offset="0" style="stop-color:#F48E69"/>
					<stop  offset="1" style="stop-color:#E52E5E"/>
				</linearGradient>
				<path class="st30" d="M201.7,250.9h-23.3c-0.7,0-1.3-0.6-1.3-1.3l0,0c0-0.7,0.6-1.3,1.3-1.3h23.3c0.7,0,1.3,0.6,1.3,1.3l0,0
					C203,250.3,202.5,250.9,201.7,250.9z"/>
			</g>
		</g>
	</g>
	<line class="st31" x1="248" y1="228.4" x2="284.4" y2="228.4"/>
	<g class="st22">
		<image style="overflow:visible;" width="130" height="129" xlink:href="EFFFB787.png"  transform="matrix(1 0 0 1 38 250)">
		</image>
	</g>
	<linearGradient id="SVGID_25_" gradientUnits="userSpaceOnUse" x1="101.3697" y1="268.1597" x2="100.3696" y2="345.4924">
		<stop  offset="0" style="stop-color:#F48E69"/>
		<stop  offset="1" style="stop-color:#E52E5E"/>
	</linearGradient>
	<path class="st32" d="M122.9,344.2H78.6c-3.3,0-6-2.7-6-6v-44.3c0-3.3,2.7-6,6-6h44.3c3.3,0,6,2.7,6,6v44.3
		C128.9,341.6,126.2,344.2,122.9,344.2z"/>
	<g>
		<linearGradient id="SVGID_26_" gradientUnits="userSpaceOnUse" x1="74.8335" y1="318.8921" x2="116.4165" y2="318.8921">
			<stop  offset="0" style="stop-color:#FFFFFF"/>
			<stop  offset="1" style="stop-color:#E6E6E6"/>
		</linearGradient>
		<polygon class="st33" points="74.8,333.5 93.2,304.3 116.4,333.4 		"/>
		<linearGradient id="SVGID_27_" gradientUnits="userSpaceOnUse" x1="89.4165" y1="321.3326" x2="125.25" y2="321.3326">
			<stop  offset="0" style="stop-color:#FFFFFF"/>
			<stop  offset="1" style="stop-color:#E6E6E6"/>
		</linearGradient>
		<polygon class="st34" points="89.4,333.5 110.3,309.2 125.3,333.3 		"/>
		<linearGradient id="SVGID_28_" gradientUnits="userSpaceOnUse" x1="100.5" y1="299.1211" x2="108.25" y2="299.1211">
			<stop  offset="0" style="stop-color:#FFFFFF"/>
			<stop  offset="1" style="stop-color:#E6E6E6"/>
		</linearGradient>
		<circle class="st35" cx="104.4" cy="299.1" r="3.9"/>
	</g>
	<g>
		<path class="st31" d="M100.8,349.6v20.9c0,3.7,3,6.8,6.8,6.8h123.8c3.7,0,6.8-3,6.8-6.8v-21"/>
		<path class="st31" d="M169.4,349.5v27.7v18.1c0,3.4,2.7,6.1,6.1,6.1h108.9"/>
		<path class="st3" d="M102.8,349.6c0,1.2-1,2.2-2.2,2.2c-1.2,0-2.2-1-2.2-2.2c0-1.2,1-2.2,2.2-2.2
			C101.9,347.4,102.8,348.4,102.8,349.6z"/>
		<path class="st3" d="M171.7,349.6c0,1.2-1,2.2-2.2,2.2c-1.2,0-2.2-1-2.2-2.2c0-1.2,1-2.2,2.2-2.2
			C170.7,347.4,171.7,348.4,171.7,349.6z"/>
		<path class="st3" d="M240.2,349.6c0,1.2-1,2.2-2.2,2.2c-1.2,0-2.2-1-2.2-2.2c0-1.2,1-2.2,2.2-2.2
			C239.2,347.4,240.2,348.4,240.2,349.6z"/>
	</g>
	<g>
		<g class="st22">
			<image style="overflow:visible;" width="129" height="129" xlink:href="AFF58663.png"  transform="matrix(1 0 0 1 107 250)">
			</image>
		</g>
		<linearGradient id="SVGID_29_" gradientUnits="userSpaceOnUse" x1="170.025" y1="269.0475" x2="169.0249" y2="346.3801">
			<stop  offset="0" style="stop-color:#F48E69"/>
			<stop  offset="1" style="stop-color:#E52E5E"/>
		</linearGradient>
		<path class="st36" d="M191.6,344.2h-44.3c-3.3,0-6-2.7-6-6v-44.3c0-3.3,2.7-6,6-6h44.3c3.3,0,6,2.7,6,6v44.3
			C197.6,341.6,194.9,344.2,191.6,344.2z"/>
		<linearGradient id="SVGID_30_" gradientUnits="userSpaceOnUse" x1="152.3701" y1="318.17" x2="186.0242" y2="318.17">
			<stop  offset="0" style="stop-color:#FFFFFF"/>
			<stop  offset="1" style="stop-color:#E6E6E6"/>
		</linearGradient>
		<path class="st37" d="M182,323.1c-5.4,6.8-12.3,10.3-12.8,10.5c0,0,0,0,0,0c0,0,0,0,0,0c-0.6-0.3-7.4-3.8-12.8-10.5
			c-5.3-6.7-6.4-19.6,3.5-20.4c5.2-0.4,9,4.6,9.3,5c0.3-0.3,4.1-5.4,9.3-5C188.4,303.5,187.4,316.5,182,323.1z"/>
	</g>
	<g>
		<g class="st22">
			<image style="overflow:visible;" width="129" height="129" xlink:href="AFF58661.png"  transform="matrix(1 0 0 1 176 250)">
			</image>
		</g>
		<g>
			<linearGradient id="SVGID_31_" gradientUnits="userSpaceOnUse" x1="238.68" y1="269.9352" x2="237.6799" y2="347.2679">
				<stop  offset="0" style="stop-color:#F48E69"/>
				<stop  offset="1" style="stop-color:#E52E5E"/>
			</linearGradient>
			<path class="st38" d="M260.3,344.2h-44.3c-3.3,0-6-2.7-6-6v-44.3c0-3.3,2.7-6,6-6h44.3c3.3,0,6,2.7,6,6v44.3
				C266.3,341.6,263.6,344.2,260.3,344.2z"/>
		</g>
		<g>
			<text transform="matrix(1 0 0 1 227.8979 326.1201)" class="st3 st39 st40">A</text>
			<g>
				<rect x="219.7" y="297" class="st31" width="36.9" height="35.8"/>
				<path class="st3" d="M221.7,297.3c0,1.1-0.9,1.9-1.9,1.9c-1.1,0-1.9-0.9-1.9-1.9c0-1.1,0.9-1.9,1.9-1.9
					C220.9,295.4,221.7,296.3,221.7,297.3z"/>
				<path class="st3" d="M258.4,297.3c0,1.1-0.9,1.9-1.9,1.9c-1.1,0-1.9-0.9-1.9-1.9c0-1.1,0.9-1.9,1.9-1.9
					C257.5,295.4,258.4,296.3,258.4,297.3z"/>
				<path class="st3" d="M240.1,297.3c0,1.1-0.9,1.9-1.9,1.9c-1.1,0-1.9-0.9-1.9-1.9c0-1.1,0.9-1.9,1.9-1.9
					C239.2,295.4,240.1,296.3,240.1,297.3z"/>
				<path class="st3" d="M221.7,332.8c0,1.1-0.9,1.9-1.9,1.9c-1.1,0-1.9-0.9-1.9-1.9c0-1.1,0.9-1.9,1.9-1.9
					C220.9,330.9,221.7,331.7,221.7,332.8z"/>
				<path class="st3" d="M258.4,332.8c0,1.1-0.9,1.9-1.9,1.9c-1.1,0-1.9-0.9-1.9-1.9c0-1.1,0.9-1.9,1.9-1.9
					C257.5,330.9,258.4,331.7,258.4,332.8z"/>
				<path class="st3" d="M240.1,332.8c0,1.1-0.9,1.9-1.9,1.9c-1.1,0-1.9-0.9-1.9-1.9c0-1.1,0.9-1.9,1.9-1.9
					C239.2,330.9,240.1,331.7,240.1,332.8z"/>
			</g>
		</g>
	</g>
	<g>
		<circle class="st3" cx="69.8" cy="87.4" r="4.3"/>
		<circle class="st3" cx="91.3" cy="87.4" r="4.3"/>
		<circle class="st3" cx="112.8" cy="87.4" r="4.3"/>
	</g>
	<path class="st3" d="M250.2,228.5c0,1.2-1,2.2-2.2,2.2c-1.2,0-2.2-1-2.2-2.2c0-1.2,1-2.2,2.2-2.2
		C249.2,226.3,250.2,227.3,250.2,228.5z"/>
	<g>
		<g>
			<circle class="st3" cx="216.8" cy="432.4" r="4.3"/>
			<circle class="st3" cx="238.3" cy="432.4" r="4.3"/>
			<circle class="st3" cx="259.8" cy="432.4" r="4.3"/>
		</g>
		<g>
			<g>
				<circle class="st3" cx="618.9" cy="111.1" r="4.3"/>
				<circle class="st3" cx="640.4" cy="111.1" r="4.3"/>
				<circle class="st3" cx="661.9" cy="111.1" r="4.3"/>
			</g>
			<g>
				<linearGradient id="SVGID_32_" gradientUnits="userSpaceOnUse" x1="502.0062" y1="120.3915" x2="499.7438" y2="62.1847">
					<stop  offset="0" style="stop-color:#30A0FC"/>
					<stop  offset="1" style="stop-color:#4250D1"/>
				</linearGradient>
				<circle class="st41" cx="500.9" cy="91.3" r="29.1"/>
				<g class="st2">
					<image style="overflow:visible;" width="110" height="109" xlink:href="AFF58667.png"  transform="matrix(1 0 0 1 447 36)">
					</image>
				</g>
				<circle class="st3" cx="500.9" cy="91.3" r="18.4"/>
				<g>
					<text transform="matrix(0.8417 0 0 1 486.5366 98.9487)" class="st42 st39 st43">&lt;/&gt;</text>
				</g>
			</g>
			<g>
				<linearGradient id="SVGID_33_" gradientUnits="userSpaceOnUse" x1="568.0062" y1="120.3915" x2="565.7438" y2="62.1847">
					<stop  offset="0" style="stop-color:#F48E69"/>
					<stop  offset="1" style="stop-color:#E52E5E"/>
				</linearGradient>
				<circle class="st44" cx="566.9" cy="91.3" r="29.1"/>
				<g class="st2">
					<image style="overflow:visible;" width="110" height="110" xlink:href="AFF58662.png"  transform="matrix(1 0 0 1 513 36)">
					</image>
				</g>
				<circle class="st3" cx="566.9" cy="91.3" r="18.4"/>
				<g>
					<text transform="matrix(0.8417 0 0 1 558.375 99.125)" class="st42 st39 st43">{ }</text>
				</g>
			</g>
		</g>
	</g>
	<g>
		<g class="st45">
			<image style="overflow:visible;" width="258" height="390" xlink:href="AFF5867D.png"  transform="matrix(1 0 0 1 241 74)">
			</image>
		</g>
		<g>
			<g>
				<linearGradient id="SVGID_34_" gradientUnits="userSpaceOnUse" x1="370.767" y1="181.2013" x2="263.7673" y2="168.9514">
					<stop  offset="0" style="stop-color:#30A0FC"/>
					<stop  offset="1" style="stop-color:#4250D1"/>
				</linearGradient>
				<path class="st46" d="M454.3,205.7L454.3,205.7c-1.6,0-2.9-1.3-2.9-2.9v-24.1c0-1.6,1.3-2.9,2.9-2.9l0,0c1.6,0,2.9,1.3,2.9,2.9
					v24.1C457.3,204.4,455.9,205.7,454.3,205.7z"/>
				<linearGradient id="SVGID_35_" gradientUnits="userSpaceOnUse" x1="366.7367" y1="216.4089" x2="259.737" y2="204.159">
					<stop  offset="0" style="stop-color:#30A0FC"/>
					<stop  offset="1" style="stop-color:#4250D1"/>
				</linearGradient>
				<path class="st47" d="M454.3,241.4L454.3,241.4c-1.6,0-2.9-1.3-2.9-2.9v-24.1c0-1.6,1.3-2.9,2.9-2.9l0,0c1.6,0,2.9,1.3,2.9,2.9
					v24.1C457.3,240.1,455.9,241.4,454.3,241.4z"/>
				<linearGradient id="SVGID_36_" gradientUnits="userSpaceOnUse" x1="282.6986" y1="204.7592" x2="258.9488" y2="204.2592">
					<stop  offset="0" style="stop-color:#30A0FC"/>
					<stop  offset="1" style="stop-color:#4250D1"/>
				</linearGradient>
				<path class="st48" d="M275.2,234.7L275.2,234.7c-1.9,0-3.4-1.5-3.4-3.4v-53.4c0-1.9,1.5-3.4,3.4-3.4l0,0c1.9,0,3.4,1.5,3.4,3.4
					v53.4C278.5,233.2,277,234.7,275.2,234.7z"/>
			</g>
			<linearGradient id="SVGID_37_" gradientUnits="userSpaceOnUse" x1="364.1608" y1="92.7589" x2="365.1608" y2="327.759">
				<stop  offset="0" style="stop-color:#4250D1"/>
				<stop  offset="0.1263" style="stop-color:#30A0FC"/>
				<stop  offset="0.178" style="stop-color:#358BF1"/>
				<stop  offset="0.2502" style="stop-color:#3A75E5"/>
				<stop  offset="0.3355" style="stop-color:#3D64DC"/>
				<stop  offset="0.441" style="stop-color:#4059D6"/>
				<stop  offset="0.589" style="stop-color:#4252D2"/>
				<stop  offset="1" style="stop-color:#4250D1"/>
			</linearGradient>
			<path class="st49" d="M439.4,425.9h-149c-7.9,0-14.3-6.4-14.3-14.3V129.2c0-7.9,6.4-14.3,14.3-14.3h149c7.9,0,14.3,6.4,14.3,14.3
				v282.5C453.7,419.5,447.3,425.9,439.4,425.9z"/>
			<path class="st50" d="M453.7,129.2v1c-1.4-6.4-7.1-11.2-13.9-11.2h-149c-7.9,0-14.3,6.4-14.3,14.3l-0.3-4
				c0-7.9,6.4-14.3,14.3-14.3h149C447.3,114.9,453.7,121.3,453.7,129.2z"/>
		</g>
		<g class="st51">
			<image style="overflow:visible;" width="234" height="363" xlink:href="AFF5867E.png"  transform="matrix(1 0 0 1 249 86)">
			</image>
		</g>
		<linearGradient id="SVGID_38_" gradientUnits="userSpaceOnUse" x1="364.2919" y1="178.8426" x2="366.2918" y2="466.176">
			<stop  offset="0" style="stop-color:#3E2E8E"/>
			<stop  offset="1" style="stop-color:#29234C"/>
		</linearGradient>
		<path class="st52" d="M445.4,131.3v274.6c0,4.4-3.3,8-7.3,8H291.7c-4,0-7.3-3.6-7.3-8V131.3c0-4.4,3.3-8,7.3-8h34.1
			c4,0,7.3,3.6,7.3,8l0,0c0,4.4,3.3,8,7.3,8h48.9c4,0,7.3-3.6,7.3-8l0,0c0-4.4,3.3-8,7.3-8h34.1
			C442.1,123.3,445.4,126.9,445.4,131.3z"/>
		<g>
			<path class="st3" d="M381.2,132h-32.6c-1.2,0-2.1-1-2.1-2.1l0,0c0-1.2,1-2.1,2.1-2.1h32.6c1.2,0,2.1,1,2.1,2.1l0,0
				C383.4,131,382.4,132,381.2,132z"/>
		</g>
		<linearGradient id="SVGID_39_" gradientUnits="userSpaceOnUse" x1="294.6665" y1="161.5381" x2="434.917" y2="161.5381">
			<stop  offset="0" style="stop-color:#30A0FC"/>
			<stop  offset="1" style="stop-color:#4250D1"/>
		</linearGradient>
		<path class="st53" d="M429.5,173.2H300c-3,0-5.4-2.4-5.4-5.4v-12.5c0-3,2.4-5.4,5.4-5.4h129.5c3,0,5.4,2.4,5.4,5.4v12.5
			C434.9,170.8,432.5,173.2,429.5,173.2z"/>
		<g>
			<path class="st54" d="M431.6,139.4h-16.8c-0.6,0-1.1-0.5-1.1-1.1v-7.5c0-0.6,0.5-1.1,1.1-1.1h16.8c0.6,0,1.1,0.5,1.1,1.1v7.5
				C432.7,138.9,432.2,139.4,431.6,139.4z"/>
			<rect x="433.8" y="131.9" class="st3" width="1.5" height="5.2"/>
			<rect x="411" y="131.9" class="st3" width="1.5" height="5.2"/>
		</g>
		<g>
			<linearGradient id="SVGID_40_" gradientUnits="userSpaceOnUse" x1="296.6665" y1="209.7881" x2="335.4165" y2="209.7881">
				<stop  offset="0" style="stop-color:#FFFFFF"/>
				<stop  offset="1" style="stop-color:#E6E6E6"/>
			</linearGradient>
			<path class="st55" d="M329.9,229.2h-27.8c-3,0-5.5-2.5-5.5-5.5v-27.8c0-3,2.5-5.5,5.5-5.5h27.8c3,0,5.5,2.5,5.5,5.5v27.8
				C335.4,226.7,333,229.2,329.9,229.2z"/>
			<linearGradient id="SVGID_41_" gradientUnits="userSpaceOnUse" x1="347.4165" y1="209.7881" x2="386.167" y2="209.7881">
				<stop  offset="0" style="stop-color:#FFFFFF"/>
				<stop  offset="1" style="stop-color:#E6E6E6"/>
			</linearGradient>
			<path class="st56" d="M380.7,229.2h-27.8c-3,0-5.5-2.5-5.5-5.5v-27.8c0-3,2.5-5.5,5.5-5.5h27.8c3,0,5.5,2.5,5.5,5.5v27.8
				C386.2,226.7,383.7,229.2,380.7,229.2z"/>
			<linearGradient id="SVGID_42_" gradientUnits="userSpaceOnUse" x1="398.167" y1="209.7881" x2="436.917" y2="209.7881">
				<stop  offset="0" style="stop-color:#FFFFFF"/>
				<stop  offset="1" style="stop-color:#E6E6E6"/>
			</linearGradient>
			<path class="st57" d="M431.4,229.2h-27.8c-3,0-5.5-2.5-5.5-5.5v-27.8c0-3,2.5-5.5,5.5-5.5h27.8c3,0,5.5,2.5,5.5,5.5v27.8
				C436.9,226.7,434.5,229.2,431.4,229.2z"/>
		</g>
		<linearGradient id="SVGID_43_" gradientUnits="userSpaceOnUse" x1="367.7533" y1="243.89" x2="367.2533" y2="344.9119">
			<stop  offset="0" style="stop-color:#30A0FC"/>
			<stop  offset="1" style="stop-color:#4250D1"/>
		</linearGradient>
		<path class="st58" d="M427.8,306.9H307.3c-4.1,0-7.5-3.4-7.5-7.5v-42.3c0-4.1,3.4-7.5,7.5-7.5h120.5c4.1,0,7.5,3.4,7.5,7.5v42.3
			C435.3,303.6,432,306.9,427.8,306.9z"/>
		<linearGradient id="SVGID_44_" gradientUnits="userSpaceOnUse" x1="329.8073" y1="328.0309" x2="332.8074" y2="393.364">
			<stop  offset="0" style="stop-color:#FFFFFF"/>
			<stop  offset="1" style="stop-color:#E6E6E6"/>
		</linearGradient>
		<path class="st59" d="M353.9,395.4h-45c-4.3,0-7.8-3.5-7.8-7.8v-49c0-4.3,3.5-7.8,7.8-7.8h45c4.3,0,7.8,3.5,7.8,7.8v49
			C361.8,391.9,358.2,395.4,353.9,395.4z"/>
		<linearGradient id="SVGID_45_" gradientUnits="userSpaceOnUse" x1="389.167" y1="349.4966" x2="420" y2="349.4966">
			<stop  offset="0" style="stop-color:#FFFFFF"/>
			<stop  offset="1" style="stop-color:#E6E6E6"/>
		</linearGradient>
		<path class="st60" d="M420,349.5c0,8.5-6.9,15.4-15.4,15.4c-8.5,0-15.4-6.9-15.4-15.4c0-8.5,6.9-15.4,15.4-15.4
			C413.1,334.1,420,341,420,349.5z"/>
		<g>
			<image style="overflow:visible;" width="92" height="91" xlink:href="AFF5867F.png"  transform="matrix(1 0 0 1 359 303)">
			</image>
		</g>
		<path class="st3" d="M414.9,349.5c0,5.5-4.6,9.9-10.3,9.9c-5.7,0-10.3-4.4-10.3-9.9c0-5.5,4.6-9.9,10.3-9.9
			C410.3,339.6,414.9,344,414.9,349.5z"/>
		<g>
			<g>
				<path class="st3" d="M438.4,382c0,5.6-4.5,10.1-10.1,10.1c-5.6,0-10.1-4.5-10.1-10.1c0-5.6,4.5-10.1,10.1-10.1
					C433.9,371.9,438.4,376.4,438.4,382z"/>
			</g>
			<g>
				<path class="st3" d="M390.9,382c0,5.6-4.5,10.1-10.1,10.1c-5.6,0-10.1-4.5-10.1-10.1c0-5.6,4.5-10.1,10.1-10.1
					C386.4,371.9,390.9,376.4,390.9,382z"/>
			</g>
			<g>
				<path class="st3" d="M414.7,382c0,5.6-4.5,10.1-10.1,10.1c-5.6,0-10.1-4.5-10.1-10.1c0-5.6,4.5-10.1,10.1-10.1
					C410.2,371.9,414.7,376.4,414.7,382z"/>
			</g>
			<linearGradient id="SVGID_46_" gradientUnits="userSpaceOnUse" x1="379.3347" y1="375.0058" x2="380.168" y2="389.7558">
				<stop  offset="0" style="stop-color:#30A0FC"/>
				<stop  offset="1" style="stop-color:#4250D1"/>
			</linearGradient>
			<polygon class="st61" points="383.4,377.6 375.8,382 383.4,386.4 			"/>
			<linearGradient id="SVGID_47_" gradientUnits="userSpaceOnUse" x1="429.3159" y1="374.5887" x2="430.0659" y2="388.0053">
				<stop  offset="0" style="stop-color:#30A0FC"/>
				<stop  offset="1" style="stop-color:#4250D1"/>
			</linearGradient>
			<polygon class="st62" points="426,377.6 433.7,382 426,386.4 			"/>
			<g>
				<linearGradient id="SVGID_48_" gradientUnits="userSpaceOnUse" x1="402.8571" y1="376.8924" x2="402.6071" y2="388.8091">
					<stop  offset="0" style="stop-color:#30A0FC"/>
					<stop  offset="1" style="stop-color:#4250D1"/>
				</linearGradient>
				<rect x="402" y="378.7" class="st63" width="1.6" height="6.5"/>
				<linearGradient id="SVGID_49_" gradientUnits="userSpaceOnUse" x1="406.5219" y1="376.9693" x2="406.272" y2="388.886">
					<stop  offset="0" style="stop-color:#30A0FC"/>
					<stop  offset="1" style="stop-color:#4250D1"/>
				</linearGradient>
				<rect x="405.6" y="378.7" class="st64" width="1.6" height="6.5"/>
			</g>
		</g>
		<g>
			<rect x="291.5" y="133.3" class="st3" width="2.3" height="4.7"/>
			<rect x="295.4" y="131.6" class="st3" width="2.3" height="6.3"/>
			<rect x="299.3" y="128.1" class="st3" width="2.3" height="9.8"/>
		</g>
		<g>
			<circle class="st3" cx="304.7" cy="156.6" r="1.8"/>
			<circle class="st3" cx="304.7" cy="161.7" r="1.8"/>
			<circle class="st3" cx="304.7" cy="166.8" r="1.8"/>
		</g>
		<g>
			<g>
				<polygon class="st65" points="424,100.1 427.2,100.1 427.2,100.1 				"/>
				<path class="st3" d="M440.7,100.1h-73c-2.6,0-4.8-2.1-4.8-4.6v0c0-1.2,0.2-2.4,0.6-3.5c0.3-1.1,0.8-2.1,1.6-3.1
					c0.3-0.3,0.6-0.6,0.9-0.9c1.9-2,4.6-3.2,7.7-3.2c1.6,0,3,0.3,4.4,0.9c-0.2-1-0.3-2-0.3-3c0-8,5.6-14.7,13-16.4v11.5h-5.3l9,9.5
					l8.9-9.5h-6V66c4.4,0.7,8.3,3.2,10.8,6.7c0.5,0.6,1,1.3,1.3,2.1c0.4,0.7,0.6,1.3,0.9,2c0.7,1.8,1,3.8,1,5.9c0,0.1,0,0.2,0,0.3
					c1-3.1,3.9-5.3,7.4-5.3c4,0,7.2,2.9,7.7,6.8c0.1,0,0.1,0,0.3,0.1c2.5-3.2,6.5-5.2,10.9-4.8c6.1,0.5,10.9,5.5,11.3,11.5
					c0,0.1,0,0.1,0,0.2C449.3,96.1,445.5,100.1,440.7,100.1z"/>
			</g>
		</g>
		<linearGradient id="SVGID_50_" gradientUnits="userSpaceOnUse" x1="315.875" y1="195.5002" x2="315.875" y2="224.3749">
			<stop  offset="0" style="stop-color:#30A0FC"/>
			<stop  offset="1" style="stop-color:#4250D1"/>
		</linearGradient>
		<path class="st66" d="M323.2,216.4l-7.3,7.6l-7.3-7.6c-4-4.2-4-11,0-15.2l0,0c4-4.2,10.6-4.2,14.6,0l0,0
			C327.2,205.3,327.2,212.2,323.2,216.4z"/>
		<ellipse class="st3" cx="315.6" cy="208.9" rx="6.7" ry="6.6"/>
		<g>
			<circle class="st54" cx="414.4" cy="161.3" r="6.8"/>
			<line class="st67" x1="420.3" y1="164.4" x2="426.5" y2="168.2"/>
		</g>
		<linearGradient id="SVGID_51_" gradientUnits="userSpaceOnUse" x1="309.1665" y1="363.0801" x2="353.6665" y2="363.0801">
			<stop  offset="0" style="stop-color:#F48E69"/>
			<stop  offset="1" style="stop-color:#E52E5E"/>
		</linearGradient>
		<circle class="st68" cx="331.4" cy="363.1" r="22.3"/>
		<path class="st3" d="M329,353.9l10.9,6.3c1.4,0.8,1.4,2.8,0,3.6l-10.9,6.3c-1.4,0.8-3.1-0.2-3.1-1.8v-12.5
			C325.9,354.1,327.6,353.1,329,353.9z"/>
		<g>
			<linearGradient id="SVGID_52_" gradientUnits="userSpaceOnUse" x1="312.6665" y1="278.2461" x2="352.6665" y2="278.2461">
				<stop  offset="0" style="stop-color:#FFFFFF"/>
				<stop  offset="1" style="stop-color:#E6E6E6"/>
			</linearGradient>
			<circle class="st69" cx="332.7" cy="278.2" r="20"/>
			<g>
				<linearGradient id="SVGID_53_" gradientUnits="userSpaceOnUse" x1="370" y1="264.2461" x2="422.5" y2="264.2461">
					<stop  offset="0" style="stop-color:#FFFFFF"/>
					<stop  offset="1" style="stop-color:#E6E6E6"/>
				</linearGradient>
				<path class="st70" d="M421.2,265.6h-49.9c-0.7,0-1.3-0.6-1.3-1.3l0,0c0-0.7,0.6-1.3,1.3-1.3h49.9c0.7,0,1.3,0.6,1.3,1.3l0,0
					C422.5,265,421.9,265.6,421.2,265.6z"/>
				<linearGradient id="SVGID_54_" gradientUnits="userSpaceOnUse" x1="370" y1="273.5801" x2="422.5" y2="273.5801">
					<stop  offset="0" style="stop-color:#FFFFFF"/>
					<stop  offset="1" style="stop-color:#E6E6E6"/>
				</linearGradient>
				<path class="st71" d="M421.2,274.9h-49.9c-0.7,0-1.3-0.6-1.3-1.3l0,0c0-0.7,0.6-1.3,1.3-1.3h49.9c0.7,0,1.3,0.6,1.3,1.3l0,0
					C422.5,274.3,421.9,274.9,421.2,274.9z"/>
				<linearGradient id="SVGID_55_" gradientUnits="userSpaceOnUse" x1="370" y1="282.9131" x2="422.5" y2="282.9131">
					<stop  offset="0" style="stop-color:#FFFFFF"/>
					<stop  offset="1" style="stop-color:#E6E6E6"/>
				</linearGradient>
				<path class="st72" d="M421.2,284.2h-49.9c-0.7,0-1.3-0.6-1.3-1.3l0,0c0-0.7,0.6-1.3,1.3-1.3h49.9c0.7,0,1.3,0.6,1.3,1.3l0,0
					C422.5,283.6,421.9,284.2,421.2,284.2z"/>
				<linearGradient id="SVGID_56_" gradientUnits="userSpaceOnUse" x1="370" y1="292.2461" x2="407.375" y2="292.2461">
					<stop  offset="0" style="stop-color:#FFFFFF"/>
					<stop  offset="1" style="stop-color:#E6E6E6"/>
				</linearGradient>
				<path class="st73" d="M406.1,293.6h-34.8c-0.7,0-1.3-0.6-1.3-1.3l0,0c0-0.7,0.6-1.3,1.3-1.3h34.8c0.7,0,1.3,0.6,1.3,1.3l0,0
					C407.4,293,406.8,293.6,406.1,293.6z"/>
			</g>
		</g>
		<g>
			<line class="st31" x1="476.8" y1="254.3" x2="445.6" y2="254.3"/>
			<path class="st3" d="M478.9,254.2c0,1.2-1,2.2-2.2,2.2c-1.2,0-2.2-1-2.2-2.2c0-1.2,1-2.2,2.2-2.2
				C477.9,252,478.9,253,478.9,254.2z"/>
		</g>
		<g>
			<line class="st31" x1="478.4" y1="311.1" x2="445.5" y2="311.1"/>
			<path class="st3" d="M480.5,311c0,1.2-1,2.2-2.2,2.2c-1.2,0-2.2-1-2.2-2.2c0-1.2,1-2.2,2.2-2.2
				C479.6,308.9,480.5,309.9,480.5,311z"/>
		</g>
		<g>
			<linearGradient id="SVGID_57_" gradientUnits="userSpaceOnUse" x1="365.2435" y1="201.2921" x2="367.3685" y2="222.417">
				<stop  offset="0" style="stop-color:#30A0FC"/>
				<stop  offset="1" style="stop-color:#4250D1"/>
			</linearGradient>
			<path class="st74" d="M377.2,217.6h-22.4c-1.5,0-2.7-1.2-2.7-2.7v-12.3c0-1.5,1.2-2.7,2.7-2.7h22.4c1.5,0,2.7,1.2,2.7,2.7v12.3
				C379.9,216.4,378.7,217.6,377.2,217.6z"/>
			<linearGradient id="SVGID_58_" gradientUnits="userSpaceOnUse" x1="372.5023" y1="200.5619" x2="374.6273" y2="221.6869">
				<stop  offset="0" style="stop-color:#30A0FC"/>
				<stop  offset="1" style="stop-color:#4250D1"/>
			</linearGradient>
			<polygon class="st75" points="371.3,217.6 377.2,222.7 377.2,217.6 			"/>
		</g>
		<linearGradient id="SVGID_59_" gradientUnits="userSpaceOnUse" x1="360.0715" y1="206.823" x2="360.0949" y2="210.19">
			<stop  offset="0" style="stop-color:#FFFFFF"/>
			<stop  offset="1" style="stop-color:#E6E6E6"/>
		</linearGradient>
		<path class="st76" d="M361.8,207.9c0,0.9-0.8,1.7-1.7,1.7c-0.9,0-1.7-0.8-1.7-1.7s0.8-1.7,1.7-1.7
			C361,206.2,361.8,206.9,361.8,207.9z"/>
		<linearGradient id="SVGID_60_" gradientUnits="userSpaceOnUse" x1="365.6594" y1="206.823" x2="365.6829" y2="210.19">
			<stop  offset="0" style="stop-color:#FFFFFF"/>
			<stop  offset="1" style="stop-color:#E6E6E6"/>
		</linearGradient>
		<path class="st77" d="M367.4,207.9c0,0.9-0.8,1.7-1.7,1.7c-0.9,0-1.7-0.8-1.7-1.7s0.8-1.7,1.7-1.7
			C366.6,206.2,367.4,206.9,367.4,207.9z"/>
		<linearGradient id="SVGID_61_" gradientUnits="userSpaceOnUse" x1="371.2471" y1="206.823" x2="371.2705" y2="210.19">
			<stop  offset="0" style="stop-color:#FFFFFF"/>
			<stop  offset="1" style="stop-color:#E6E6E6"/>
		</linearGradient>
		<circle class="st78" cx="371.3" cy="207.9" r="1.7"/>
		<g>
			<linearGradient id="SVGID_62_" gradientUnits="userSpaceOnUse" x1="418.0621" y1="194.1581" x2="417.3768" y2="227.0491">
				<stop  offset="0" style="stop-color:#30A0FC"/>
				<stop  offset="1" style="stop-color:#4250D1"/>
			</linearGradient>
			<rect x="415.2" y="199.1" class="st79" width="5.1" height="22"/>
			
				<linearGradient id="SVGID_63_" gradientUnits="userSpaceOnUse" x1="561.0623" y1="142.491" x2="560.3771" y2="175.3827" gradientTransform="matrix(0 -1 1 0 259.25 770.875)">
				<stop  offset="0" style="stop-color:#30A0FC"/>
				<stop  offset="1" style="stop-color:#4250D1"/>
			</linearGradient>
			<polygon class="st80" points="428.8,207.6 428.8,212.7 406.7,212.7 406.7,207.6 			"/>
		</g>
	</g>
	<g class="st22">
		<linearGradient id="SVGID_64_" gradientUnits="userSpaceOnUse" x1="333.8247" y1="432.5612" x2="337.5089" y2="479.6057">
			<stop  offset="0" style="stop-color:#30A0FC"/>
			<stop  offset="1" style="stop-color:#4250D1"/>
		</linearGradient>
		<polygon class="st81" points="359.3,456.1 335.7,479.8 312,456.1 335.7,432.4 		"/>
		<linearGradient id="SVGID_65_" gradientUnits="userSpaceOnUse" x1="292.8246" y1="41.9357" x2="296.5089" y2="88.9807">
			<stop  offset="0" style="stop-color:#30A0FC"/>
			<stop  offset="1" style="stop-color:#4250D1"/>
		</linearGradient>
		<polygon class="st82" points="318.3,65.5 294.7,89.1 271,65.5 294.7,41.8 		"/>
		<linearGradient id="SVGID_66_" gradientUnits="userSpaceOnUse" x1="47.6579" y1="181.6443" x2="51.3422" y2="228.6892">
			<stop  offset="0" style="stop-color:#30A0FC"/>
			<stop  offset="1" style="stop-color:#4250D1"/>
		</linearGradient>
		<polygon class="st83" points="73.2,205.2 49.5,228.8 25.8,205.2 49.5,181.5 		"/>
		<linearGradient id="SVGID_67_" gradientUnits="userSpaceOnUse" x1="705.6578" y1="419.6443" x2="709.3421" y2="466.6888">
			<stop  offset="0" style="stop-color:#30A0FC"/>
			<stop  offset="1" style="stop-color:#4250D1"/>
		</linearGradient>
		<polygon class="st84" points="731.2,443.2 707.5,466.8 683.8,443.2 707.5,419.5 		"/>
		<linearGradient id="SVGID_68_" gradientUnits="userSpaceOnUse" x1="71.1768" y1="409.6036" x2="73.8232" y2="443.3964">
			<stop  offset="0" style="stop-color:#30A0FC"/>
			<stop  offset="1" style="stop-color:#4250D1"/>
		</linearGradient>
		<polygon class="st85" points="89.5,426.5 72.5,443.5 55.5,426.5 72.5,409.5 		"/>
		<linearGradient id="SVGID_69_" gradientUnits="userSpaceOnUse" x1="679.1768" y1="47.6036" x2="681.8232" y2="81.3964">
			<stop  offset="0" style="stop-color:#30A0FC"/>
			<stop  offset="1" style="stop-color:#4250D1"/>
		</linearGradient>
		<polygon class="st86" points="697.5,64.5 680.5,81.5 663.5,64.5 680.5,47.5 		"/>
	</g>
</g>
</svg>
